<svg width="1000" height="600" viewBox="0 0 1000 600" xmlns="http://www.w3.org/2000/svg">
  <rect width="1000" height="600" fill="#ffffff"/>
  <rect x="0" y="0" width="1000" height="80" fill="#112E51"/>
  <text x="20" y="30" fill="#ffffff" font-family="Arial" font-size="24" font-weight="bold">MRI Data Dashboard</text>
  <rect x="20" y="100" width="960" height="40" fill="#f1f1f1" rx="4"/>
  <text x="30" y="125" fill="#112E51" font-family="Arial" font-size="16">Search job postings...</text>
  <rect x="20" y="160" width="300" height="200" fill="#ffffff" stroke="#e5e5e5" rx="4"/>
  <text x="30" y="185" fill="#112E51" font-family="Arial" font-size="18" font-weight="bold">Recent Jobs</text>
  <rect x="30" y="200" width="260" height="30" fill="#f9f9f9" rx="2"/>
  <text x="40" y="220" fill="#212121" font-family="Arial" font-size="14">Software Engineer at TechCorp</text>
  <rect x="30" y="240" width="260" height="30" fill="#f9f9f9" rx="2"/>
  <text x="40" y="260" fill="#212121" font-family="Arial" font-size="14">Data Analyst at DataCo</text>
  <rect x="30" y="280" width="260" height="30" fill="#f9f9f9" rx="2"/>
  <text x="40" y="300" fill="#212121" font-family="Arial" font-size="14">Product Manager at StartupInc</text>
  <rect x="340" y="160" width="300" height="200" fill="#ffffff" stroke="#e5e5e5" rx="4"/>
  <text x="350" y="185" fill="#112E51" font-family="Arial" font-size="18" font-weight="bold">Sources</text>
  <circle cx="365" cy="210" r="8" fill="#0077b5"/>
  <text x="380" y="215" fill="#212121" font-family="Arial" font-size="14">LinkedIn</text>
  <circle cx="365" cy="235" r="8" fill="#2557a7"/>
  <text x="380" y="240" fill="#212121" font-family="Arial" font-size="14">Indeed</text>
  <circle cx="365" cy="260" r="8" fill="#0e76a8"/>
  <text x="380" y="265" fill="#212121" font-family="Arial" font-size="14">Glassdoor</text>
  <circle cx="365" cy="285" r="8" fill="#ea4335"/>
  <text x="380" y="290" fill="#212121" font-family="Arial" font-size="14">AngelList</text>
  <rect x="660" y="160" width="300" height="200" fill="#ffffff" stroke="#e5e5e5" rx="4"/>
  <text x="670" y="185" fill="#112E51" font-family="Arial" font-size="18" font-weight="bold">Real-time Updates</text>
  <rect x="670" y="200" width="260" height="20" fill="#d83933"/>
  <text x="680" y="215" fill="#ffffff" font-family="Arial" font-size="12">5 new jobs in last hour</text>
  <rect x="670" y="230" width="260" height="20" fill="#fdb81e"/>
  <text x="680" y="245" fill="#000000" font-family="Arial" font-size="12">Data quality: 99.9%</text>
  <rect x="670" y="260" width="260" height="20" fill="#205493"/>
  <text x="680" y="275" fill="#ffffff" font-family="Arial" font-size="12">Sources active: 50+</text>
  <rect x="20" y="380" width="960" height="200" fill="#ffffff" stroke="#e5e5e5" rx="4"/>
  <text x="30" y="405" fill="#112E51" font-family="Arial" font-size="18" font-weight="bold">Job Listings Table</text>
  <line x1="30" y1="415" x2="970" y2="415" stroke="#e5e5e5"/>
  <text x="40" y="435" fill="#212121" font-family="Arial" font-size="14" font-weight="bold">Title</text>
  <text x="300" y="435" fill="#212121" font-family="Arial" font-size="14" font-weight="bold">Company</text>
  <text x="500" y="435" fill="#212121" font-family="Arial" font-size="14" font-weight="bold">Location</text>
  <text x="700" y="435" fill="#212121" font-family="Arial" font-size="14" font-weight="bold">Posted</text>
  <text x="850" y="435" fill="#212121" font-family="Arial" font-size="14" font-weight="bold">Source</text>
  <line x1="30" y1="445" x2="970" y2="445" stroke="#e5e5e5"/>
  <text x="40" y="465" fill="#212121" font-family="Arial" font-size="12">Senior Software Engineer</text>
  <text x="300" y="465" fill="#212121" font-family="Arial" font-size="12">TechCorp Inc.</text>
  <text x="500" y="465" fill="#212121" font-family="Arial" font-size="12">San Francisco, CA</text>
  <text x="700" y="465" fill="#212121" font-family="Arial" font-size="12">2 hours ago</text>
  <text x="850" y="465" fill="#0077b5" font-family="Arial" font-size="12">LinkedIn</text>
  <line x1="30" y1="475" x2="970" y2="475" stroke="#e5e5e5"/>
  <text x="40" y="495" fill="#212121" font-family="Arial" font-size="12">Data Scientist</text>
  <text x="300" y="495" fill="#212121" font-family="Arial" font-size="12">DataCo Analytics</text>
  <text x="500" y="495" fill="#212121" font-family="Arial" font-size="12">New York, NY</text>
  <text x="700" y="495" fill="#212121" font-family="Arial" font-size="12">1 hour ago</text>
  <text x="850" y="495" fill="#2557a7" font-family="Arial" font-size="12">Indeed</text>
  <line x1="30" y1="505" x2="970" y2="505" stroke="#e5e5e5"/>
  <text x="40" y="525" fill="#212121" font-family="Arial" font-size="12">Product Manager</text>
  <text x="300" y="525" fill="#212121" font-family="Arial" font-size="12">StartupInc</text>
  <text x="500" y="525" fill="#212121" font-family="Arial" font-size="12">Austin, TX</text>
  <text x="700" y="525" fill="#212121" font-family="Arial" font-size="12">30 min ago</text>
  <text x="850" y="525" fill="#0e76a8" font-family="Arial" font-size="12">Glassdoor</text>
</svg>