<?xml version="1.0" encoding="UTF-8"?> <svg xmlns="http://www.w3.org/2000/svg" width="254" height="20" viewBox="0 0 254 20" fill="none"> <path d="M17.49 20.0003C23.0298 15.257 30.812 10.6455 35.0856 8.98532C34.426 8.5637 33.3972 7.95762 32.2365 7.29883C26.723 9.11708 20.2863 13.1489 14.5354 17.7077C15.5115 18.4455 16.5403 19.2097 17.49 20.0003Z" fill="white"></path> <path d="M14.9574 7.11313C14.1396 6.71785 13.2427 6.34893 12.5568 6.03271C10.4727 7.06042 7.75559 8.61516 4.32617 11.0659C5.06482 11.4611 5.85622 11.9355 6.70039 12.4098C9.3384 10.4598 12.0028 8.61516 14.9574 7.11313Z" fill="white"></path> <path d="M19.8903 4.84769C18.8879 4.29431 15.4057 3.00309 13.0051 2.44971C12.2928 2.71322 11.2904 3.10849 10.6045 3.39836C11.475 3.63552 14.7198 4.50512 17.4897 5.90175C18.202 5.55918 19.2044 5.13756 19.8903 4.84769Z" fill="white"></path> <path d="M8.09871 4.50586C5.01223 5.92884 1.76747 7.87885 0 9.01197C0.633124 9.30183 1.26625 9.539 2.13679 9.96062C6.04106 7.32547 9.10116 5.71803 10.3146 5.191C9.4441 4.87478 8.62631 4.66397 8.09871 4.50586Z" fill="white"></path> <path d="M22.2122 4.03042C22.9245 3.79326 23.7423 3.58245 24.4545 3.37164C22.3969 2.50204 19.8116 1.57973 17.4902 1C17.1208 1.10541 16.0129 1.39527 15.2478 1.63244C16.0393 1.8696 18.6509 2.47568 22.2122 4.03042ZM9.20679 13.9386C10.051 14.4393 10.9479 15.1244 11.8184 15.7041C17.5957 11.2244 23.2938 7.77234 29.5459 5.82233C28.6754 5.37435 27.9103 4.97908 26.9343 4.50475C23.1883 5.4534 16.7779 8.0095 9.20679 13.9386Z" fill="white"></path> <path d="M62.0956 4H57.9653V4.34575H59.2891V11.2076C59.2891 13.2556 58.7066 13.8407 57.4358 13.8407C56.9592 13.8939 56.5356 13.5481 56.4827 13.0694C56.4827 13.0162 56.4827 12.963 56.4827 12.9098C56.4827 12.1651 56.4297 11.713 55.7678 11.713C55.1059 11.713 55 12.4045 55 12.6173C55 13.5747 55.4236 14.2928 57.3034 14.2928C59.5539 14.2928 60.7453 13.5481 60.7453 11.0215V4.34575H62.1221L62.0956 4Z" fill="white"></path> <path d="M62.6247 12.6694C62.4129 12.6694 62.2011 12.7492 62.0422 12.9088C61.8834 13.0684 61.804 13.2812 61.804 13.4939C61.804 13.7067 61.8834 13.9195 62.0422 14.0525C62.2011 14.212 62.4129 14.2918 62.6247 14.2918C62.8365 14.2918 63.0483 14.212 63.2072 14.0525C63.366 13.8929 63.4455 13.7067 63.4455 13.4939C63.4455 13.0418 63.1013 12.696 62.6512 12.696H62.6247" fill="white"></path> <path d="M71.8122 12.6706C71.3886 12.6706 71.0179 13.0164 70.9915 13.4419V13.4685C70.9915 13.6813 71.0974 13.8941 71.2562 14.0271C71.4151 14.1866 71.6269 14.2664 71.8387 14.2664C72.0505 14.2664 72.2623 14.1866 72.4212 14.0271C72.58 13.8941 72.6594 13.6813 72.6594 13.4685C72.6594 13.2558 72.58 13.043 72.4212 12.8834C72.2623 12.7238 72.077 12.644 71.8652 12.644" fill="white"></path> <path d="M68.9528 4H64.8755V4.34575H66.0669V12.1651C66.0934 12.4843 66.0669 12.8034 65.961 13.1226C65.8551 13.3354 65.6698 13.5215 65.458 13.5747C65.2197 13.6545 64.9549 13.7077 64.6902 13.7077V14.0269H69.0058V13.7077C68.7145 13.7077 68.4498 13.6811 68.185 13.6013C67.9467 13.5215 67.7614 13.362 67.682 13.1492C67.6025 12.9364 67.5496 12.7236 67.5761 12.5109V9.79803H68.6616C71.7858 9.79803 72.6595 8.548 72.6595 6.87242C72.6595 5.19684 72.1035 4 68.9528 4ZM68.3704 9.39909H67.5496V4.39895H68.2909C70.7002 4.39895 71.2827 5.38302 71.2827 6.97881C71.2827 8.5746 70.3296 9.45228 68.4233 9.45228" fill="white"></path> <path d="M85.5533 13.0953C85.4738 12.8825 85.4473 12.6431 85.4738 12.4038V4.34504H86.5593V4.02588H83.9912L80.867 11.6591C80.867 11.6857 80.8405 11.7123 80.814 11.7123C80.7876 11.7123 80.7611 11.6857 80.7346 11.6591C80.7346 11.6591 77.5045 4.10567 77.4781 4.02588H74.6187V4.34504H75.863V12.8293C75.863 13.0155 75.7836 13.1751 75.7042 13.3346C75.5983 13.4942 75.4394 13.6006 75.2541 13.6538C75.0687 13.707 74.8569 13.707 74.6716 13.707V14.0262H77.5045V13.707C77.3192 13.707 77.1604 13.6804 77.0015 13.6272C76.7897 13.574 76.6308 13.4676 76.4984 13.3081C76.3925 13.1485 76.3396 12.9889 76.3131 12.8027L76.2866 12.0846V5.3823H76.4455C76.4455 5.3823 80.1257 13.9198 80.1257 14.0262H80.4699L83.9382 5.46209H84.0176V12.3506C84.0176 12.5899 83.9912 12.8293 83.9382 13.0687C83.8588 13.2815 83.6999 13.441 83.5146 13.5208C83.2763 13.6006 83.038 13.6538 82.7997 13.6538V13.973H86.7447V13.6538C86.5064 13.6538 86.2416 13.6006 86.0033 13.5208C85.7915 13.4144 85.6327 13.2283 85.5533 13.0155" fill="white"></path> <path d="M90.875 6.68652C88.7569 6.68652 87.4331 8.06954 87.4331 10.5164C87.4331 14.1069 90.2131 14.3197 90.822 14.3197C92.0135 14.3197 94.2639 13.575 94.2639 10.4366C94.2374 7.98975 92.8077 6.68652 90.875 6.68652ZM90.8485 13.8676C89.2599 13.8676 89.0217 13.0697 89.0217 10.543C89.0217 8.57487 89.154 7.08547 90.8485 7.08547C92.6754 7.08547 92.7018 8.62807 92.7018 10.3834C92.7018 12.9633 92.2517 13.8676 90.8485 13.8676Z" fill="white"></path> <path d="M99.771 6.79346C98.5002 6.79346 98.1295 7.53816 97.7589 8.30946H97.653C97.653 8.30946 97.4676 7.219 97.4147 6.87325H94.9524V7.2456H96.2762V12.2191C96.3027 12.5649 96.2497 12.9106 96.1173 13.2298C95.985 13.4692 95.6672 13.6022 95.1907 13.6022H94.9789V14.0543H99.0562V13.6022H98.8708C98.3413 13.6022 98.103 13.4958 97.9707 13.2564C97.8383 12.9372 97.7589 12.5649 97.8118 12.2191V9.63928C97.8118 8.78819 98.4737 7.77753 99.2415 7.77753C100.036 7.77753 100.036 9.02756 100.962 8.52223C101.439 8.22967 101.333 6.79346 99.771 6.79346Z" fill="white"></path> <path d="M116.054 13.282C115.604 13.282 115.471 13.0426 115.445 12.6437V8.70742C115.498 8.17549 115.313 7.61696 114.942 7.21801C114.571 6.84566 113.83 6.63289 112.771 6.63289C111.977 6.5797 111.209 6.76587 110.52 7.19142C110.123 7.43078 109.885 7.88292 109.885 8.33506C109.859 8.52124 109.938 8.70742 110.07 8.8404C110.203 8.94678 110.362 8.99998 110.52 8.99998C110.918 8.99998 111.156 8.7872 111.235 8.25527C111.235 7.93612 111.368 7.64356 111.553 7.40419C111.818 7.16482 112.188 7.03184 112.533 7.08503C112.93 7.03184 113.353 7.19142 113.618 7.51057C113.83 7.82973 113.909 8.17549 113.909 8.54784V9.79787C112.612 9.90426 109.514 10.1702 109.647 12.5107C109.753 13.4948 110.6 14.2395 111.579 14.2129C112.506 14.1863 113.38 13.7607 113.962 13.016C114.095 13.681 114.677 14.1331 115.339 14.1065C116.292 14.1065 116.875 13.6278 116.928 12.4841H116.689C116.636 13.016 116.319 13.282 116.054 13.282ZM113.909 12.5107C113.909 12.5373 113.909 12.5373 113.909 12.5639V12.5905C113.486 13.0692 112.903 13.3618 112.268 13.4416C111.659 13.4682 111.129 12.9894 111.103 12.3511C111.103 12.2979 111.103 12.2447 111.103 12.1916C111.103 10.8617 112.93 10.1968 113.936 10.1968L113.909 12.5107Z" fill="white"></path> <path d="M124.42 13.2295C124.235 12.9104 124.155 12.538 124.155 12.1657V8.92089C124.182 8.49535 124.102 8.0964 123.917 7.72405C123.758 7.43149 123.494 7.16553 123.202 7.00595C122.858 6.84637 122.487 6.76658 122.117 6.76658C121.137 6.73998 120.237 7.27191 119.787 8.1496H119.628L119.363 6.84637H117.166V7.21872H118.278V12.1657C118.278 12.4582 118.251 12.7242 118.198 13.0168C118.145 13.2295 117.987 13.4157 117.775 13.4689C117.589 13.5487 117.378 13.5753 117.166 13.5753V14.0274H120.687V13.5753C120.422 13.6019 120.158 13.4689 119.972 13.2827C119.813 12.9636 119.734 12.6178 119.787 12.2721V10.3837C119.707 9.69219 119.813 9.00068 120.052 8.33577C120.343 7.83044 120.899 7.51128 121.481 7.53788C121.879 7.48468 122.276 7.69745 122.461 8.04321C122.646 8.57514 122.726 9.16026 122.699 9.71879V12.0593C122.726 12.3518 122.726 12.6444 122.699 12.937C122.673 13.1497 122.567 13.3359 122.382 13.4423C122.196 13.5487 122.011 13.6019 121.826 13.6019V14.054H125.241V13.6019C124.817 13.5487 124.553 13.4423 124.42 13.2295Z" fill="white"></path> <path d="M108.455 6.39346C108.217 6.49985 108.058 6.71262 108.031 6.95199C107.979 7.24455 107.873 7.40413 107.714 7.45732C107.555 7.51051 107.37 7.48392 107.211 7.43072C106.575 6.8722 105.728 6.60623 104.907 6.65942C103.451 6.55304 102.154 7.6435 102.048 9.1063C102.048 9.21269 102.048 9.31907 102.048 9.42546C102.048 10.9681 102.63 11.6596 103.901 11.9521C103.981 11.9521 103.981 12.0585 103.901 12.0585C102.816 12.2447 101.863 12.5638 101.863 13.6277C101.863 14.133 102.18 14.5852 102.657 14.7448C103.345 14.9841 104.06 15.0905 104.775 15.0639C105.331 15.0639 105.913 15.0905 106.469 15.1437C106.787 15.1703 107.105 15.2767 107.396 15.4629C107.634 15.6756 107.767 15.9682 107.74 16.2874C107.74 16.7927 107.423 17.2448 106.972 17.431C106.364 17.7236 105.702 17.8565 105.04 17.8299C104.431 17.8831 103.795 17.7502 103.266 17.431C102.948 17.1916 102.789 16.7927 102.895 16.4203C103.001 16.1278 102.842 15.782 102.524 15.6756H102.445C102.207 15.649 101.968 15.7554 101.836 15.9416C101.73 16.1278 101.651 16.3671 101.677 16.6065C101.704 17.298 102.18 17.8565 102.869 17.9895C103.504 18.2023 104.166 18.2821 104.828 18.2821C105.596 18.3087 106.364 18.1757 107.078 17.8565C107.926 17.4842 108.508 16.6597 108.508 15.7288C108.535 15.2767 108.402 14.8511 108.164 14.4788C107.449 13.4947 106.443 13.6277 104.166 13.5213C103.08 13.5213 102.869 13.3351 102.869 13.016C102.869 12.5107 103.266 12.3245 104.828 12.0851C106.39 11.8457 107.846 11.2606 107.846 9.37227C107.846 8.92013 107.767 8.44139 107.555 8.01585C107.846 8.09564 108.164 8.09564 108.455 8.01585C108.72 7.93606 108.958 7.74988 109.091 7.51051C109.223 7.32434 109.276 7.05837 109.223 6.8456C109.091 6.44665 108.826 6.28707 108.455 6.39346ZM104.934 11.633C104.007 11.633 103.451 11.2872 103.451 9.39886C103.451 8.06904 103.901 7.08497 104.934 7.08497C106.099 7.08497 106.416 7.98925 106.416 9.37227C106.39 11.3404 105.781 11.633 104.934 11.633Z" fill="white"></path> <path d="M152.989 13.8143C152.157 14.6465 151.324 15.0659 150.406 15.0659C148.488 15.0659 147.077 13.6545 147.077 11.6573C147.077 9.66013 148.488 8.24878 150.406 8.24878C151.324 8.24878 152.236 8.66153 152.989 9.41381L153.069 9.4937L154.32 7.9958C153.322 6.83077 152.07 6.16504 150.579 6.16504C149.088 6.16504 147.663 6.66434 146.664 7.58305C145.586 8.58164 145 9.99299 145 11.6573C145 13.3216 145.586 14.733 146.664 15.7316C147.663 16.6503 149.074 17.1429 150.579 17.1429C152.083 17.1429 153.322 16.5571 154.32 15.3122L152.989 13.8143Z" fill="white"></path> <path d="M155.406 16.9696H157.562V6.31787H155.406V16.9696Z" fill="white"></path> <path d="M166.057 14.6397C165.471 14.9726 164.979 15.139 164.473 15.139C163.807 15.139 163.474 14.8062 163.474 13.974V8.39519H165.638V6.39799H163.387V3.06934L161.224 4.23437V6.39799H159.393V8.39519H161.224V14.3868C161.224 16.0511 162.222 17.1296 163.634 17.1296C164.632 17.1296 165.218 16.8766 165.551 16.6303L166.05 14.5532L166.057 14.6397Z" fill="white"></path> <path d="M167.881 16.9696H170.052V6.31787H167.881V16.9696Z" fill="white"></path> <path d="M171.383 4.49368C169.386 1.66433 166.137 0 162.729 0C159.4 0 156.071 1.66433 154.074 4.49368L153.994 4.66012H156.491C158.155 2.9159 160.405 1.99719 162.735 1.99719C164.986 1.99719 167.229 2.9159 168.98 4.66012H171.476L171.383 4.49368Z" fill="white"></path> <path fill-rule="evenodd" clip-rule="evenodd" d="M191 0H210V16.3404H191V0ZM205.346 11.212V11.972H202.591V11.212H203.329V6.65185H202.591V6.65114H202.021L200.5 11.9708H199.36L198.125 7.60116L196.89 11.9708H195.76L194.2 6.65114H193.47V5.87961H196.225V6.65114H195.465L196.51 10.2612L197.745 5.87961H198.885L200.12 10.2612L201.071 6.65114H200.31V5.87961H203.351V5.88849H207.611L207.626 7.88688H207.056C206.939 7.71739 206.88 7.5145 206.825 7.32262C206.723 6.96849 206.632 6.65185 206.201 6.65185H204.491V8.5519H206.139C206.325 8.88964 206.308 9.06127 206.139 9.36426H204.491V11.212H205.346Z" fill="white"></path> <rect x="191" y="16.9097" width="19.0005" height="2.09005" fill="white"></rect> <path fill-rule="evenodd" clip-rule="evenodd" d="M230 14.986V1H253.353V14.986L241.694 19L230 14.986ZM238.092 14.5356H241.659V4.68955H237.968V9.89155C237.968 11.4756 237.134 11.7996 236.495 11.7996C235.413 11.7996 235.289 10.9896 235.289 9.85555V4.68955H231.598V11.4396C231.598 13.7076 233.159 14.7696 234.898 14.7696C236.371 14.7696 237.365 14.2836 238.057 13.2756H238.092V14.5356ZM248.136 6.81355C248.385 6.97555 248.544 7.22755 248.58 7.55155V7.51555H251.952C251.845 4.99555 249.325 4.41955 247.231 4.41955C245.297 4.41955 242.653 5.06755 242.653 7.55155C242.653 9.27955 243.771 10.1796 246.592 10.6656C248.314 10.9536 248.633 11.1156 248.633 11.6916C248.633 12.2316 247.87 12.4296 247.391 12.4296C246.947 12.4296 246.592 12.3036 246.397 12.1416C246.113 11.8896 245.989 11.6376 245.954 11.2776H242.422C242.493 13.7976 244.978 14.7336 247.267 14.7336C249.627 14.7336 252.2 14.0316 252.2 11.2776C252.2 9.65755 251.118 8.91955 249.875 8.52355C249.244 8.33141 248.571 8.20903 247.983 8.10204C247.414 7.99855 246.925 7.90946 246.628 7.78555C246.415 7.67755 246.184 7.55155 246.184 7.26355C246.184 6.65155 246.788 6.52555 247.302 6.52555C247.622 6.52555 247.906 6.61555 248.136 6.81355Z" fill="white"></path> </svg> 