<?xml version="1.0" encoding="UTF-8"?> <svg xmlns="http://www.w3.org/2000/svg" width="401" height="32" viewBox="0 0 401 32" fill="none"> <path d="M396.67 24.6955C384.288 30.5884 376.603 25.658 371.684 22.6633C371.38 22.4746 370.863 22.7074 371.311 23.223C372.95 25.2101 378.321 29.9996 385.331 29.9996C392.347 29.9996 396.52 26.1718 397.042 25.5041C397.561 24.842 397.194 24.4768 396.67 24.6955H396.67ZM400.148 22.775C399.815 22.342 398.126 22.2613 397.063 22.3919C395.998 22.5187 394.4 23.1695 394.538 23.5603C394.61 23.7066 394.755 23.641 395.487 23.5752C396.22 23.502 398.275 23.2427 398.703 23.8024C399.134 24.366 398.048 27.0509 397.85 27.4839C397.658 27.9169 397.923 28.0285 398.283 27.7401C398.638 27.4519 399.28 26.7053 399.711 25.6488C400.139 24.5865 400.401 23.1047 400.148 22.775Z" fill="#FF9900"></path> <path fill-rule="evenodd" clip-rule="evenodd" d="M388.345 12.6714C388.345 14.2176 388.384 15.5071 387.602 16.8802C386.972 17.9967 385.972 18.6833 384.856 18.6833C383.332 18.6833 382.445 17.5222 382.445 15.8085C382.445 12.4257 385.476 11.8117 388.345 11.8117V12.6714ZM392.347 22.3452C392.085 22.5796 391.705 22.5964 391.409 22.44C390.092 21.346 389.858 20.838 389.132 19.7941C386.955 22.0158 385.414 22.6801 382.59 22.6801C379.252 22.6801 376.65 20.6202 376.65 16.4951C376.65 13.2743 378.398 11.0805 380.882 10.0088C383.036 9.05971 386.045 8.89228 388.345 8.63001V8.11641C388.345 7.17298 388.417 6.0566 387.865 5.24166C387.379 4.51038 386.453 4.20893 385.638 4.20893C384.125 4.20893 382.774 4.9848 382.445 6.59243C382.378 6.94978 382.115 7.30147 381.758 7.31818L377.906 6.90518C377.583 6.83247 377.225 6.5702 377.315 6.0733C378.202 1.40678 382.417 0 386.19 0C388.121 0 390.645 0.5136 392.169 1.97615C394.1 3.77911 393.916 6.18497 393.916 8.80297V14.9879C393.916 16.8468 394.686 17.6617 395.412 18.6666C395.668 19.0238 395.724 19.4537 395.4 19.7215C394.591 20.3969 393.151 21.653 392.358 22.3564L392.347 22.3452" fill="black"></path> <path d="M396.67 24.6955C384.288 30.5884 376.603 25.658 371.684 22.6633C371.38 22.4746 370.863 22.7074 371.311 23.223C372.95 25.2101 378.321 29.9996 385.331 29.9996C392.347 29.9996 396.52 26.1718 397.042 25.5041C397.561 24.842 397.194 24.4768 396.67 24.6955H396.67ZM400.148 22.775C399.815 22.342 398.126 22.2613 397.063 22.3919C395.998 22.5187 394.4 23.1695 394.538 23.5603C394.61 23.7066 394.755 23.641 395.487 23.5752C396.22 23.502 398.275 23.2427 398.703 23.8024C399.134 24.366 398.048 27.0509 397.85 27.4839C397.658 27.9169 397.923 28.0285 398.283 27.7401C398.638 27.4519 399.28 26.7053 399.711 25.6488C400.139 24.5865 400.401 23.1047 400.148 22.775Z" fill="white"></path> <path fill-rule="evenodd" clip-rule="evenodd" d="M388.345 12.6714C388.345 14.2176 388.384 15.5071 387.602 16.8802C386.972 17.9967 385.972 18.6833 384.856 18.6833C383.332 18.6833 382.445 17.5222 382.445 15.8085C382.445 12.4257 385.476 11.8117 388.345 11.8117V12.6714ZM392.347 22.3452C392.085 22.5796 391.705 22.5964 391.409 22.44C390.092 21.346 389.858 20.838 389.132 19.7941C386.955 22.0158 385.414 22.6801 382.59 22.6801C379.252 22.6801 376.65 20.6202 376.65 16.4951C376.65 13.2743 378.398 11.0805 380.882 10.0088C383.036 9.05971 386.045 8.89228 388.345 8.63001V8.11641C388.345 7.17298 388.417 6.0566 387.865 5.24166C387.379 4.51038 386.453 4.20893 385.638 4.20893C384.125 4.20893 382.774 4.9848 382.445 6.59243C382.378 6.94978 382.115 7.30147 381.758 7.31818L377.906 6.90518C377.583 6.83247 377.225 6.5702 377.315 6.0733C378.202 1.40678 382.417 0 386.19 0C388.121 0 390.645 0.5136 392.169 1.97615C394.1 3.77911 393.916 6.18497 393.916 8.80297V14.9879C393.916 16.8468 394.686 17.6617 395.412 18.6666C395.668 19.0238 395.724 19.4537 395.4 19.7215C394.591 20.3969 393.151 21.653 392.358 22.3564L392.347 22.3452" fill="white"></path> <g clip-path="url(#clip0_1017_14143)"> <path d="M262.953 14.2773V17.0545H270.171C269.979 18.5909 269.404 19.7727 268.51 20.5409C267.488 21.4864 265.827 22.55 262.953 22.55C258.545 22.55 255.096 19.2409 255.096 15.1636C255.096 11.0864 258.481 7.77727 262.953 7.77727C265.316 7.77727 267.105 8.66364 268.382 9.78636L270.49 7.83636C268.701 6.24091 266.274 5 262.953 5C256.884 5 251.774 9.55 251.774 15.1636C251.774 20.7773 256.884 25.3273 262.953 25.3273C266.21 25.3273 268.701 24.3227 270.618 22.4909C272.598 20.6591 273.237 18.0591 273.237 15.9909C273.237 15.3409 273.173 14.75 273.109 14.2773H262.953Z" fill="white"></path> <path d="M282.179 11.9724C278.283 11.9724 275.025 14.7497 275.025 18.5315C275.025 22.3133 278.219 25.0906 282.179 25.0906C286.14 25.0906 289.333 22.3724 289.333 18.5906C289.333 14.7497 286.14 11.9724 282.179 11.9724ZM282.179 22.5497C280.008 22.5497 278.155 20.8951 278.155 18.5906C278.155 16.227 280.008 14.6315 282.179 14.6315C284.351 14.6315 286.204 16.227 286.204 18.5906C286.204 20.8951 284.351 22.5497 282.179 22.5497Z" fill="white"></path> <path d="M317.119 13.4497H316.991C316.288 12.6815 314.947 11.9724 313.222 11.9724C309.645 11.9724 306.579 14.8088 306.579 18.5315C306.579 22.1951 309.645 25.0906 313.222 25.0906C314.947 25.0906 316.288 24.3815 316.991 23.6133H317.119V24.5588C317.119 27.0406 315.649 28.3997 313.35 28.3997C311.434 28.3997 310.284 27.1588 309.773 26.036L307.09 27.0997C307.857 28.8133 309.964 30.9997 313.414 30.9997C317.055 30.9997 320.185 28.9906 320.185 24.1451V12.327H317.246V13.4497H317.119ZM313.542 22.5497C311.37 22.5497 309.773 20.836 309.773 18.5906C309.773 16.286 311.434 14.6315 313.542 14.6315C315.649 14.6315 317.31 16.3451 317.31 18.6497C317.374 20.8951 315.713 22.5497 313.542 22.5497Z" fill="white"></path> <path d="M298.084 11.9724C294.187 11.9724 290.93 14.7497 290.93 18.5315C290.93 22.3133 294.123 25.0906 298.084 25.0906C302.044 25.0906 305.238 22.3724 305.238 18.5906C305.238 14.7497 302.044 11.9724 298.084 11.9724ZM298.084 22.5497C295.912 22.5497 294.06 20.8951 294.06 18.5906C294.06 16.227 295.912 14.6315 298.084 14.6315C300.255 14.6315 302.108 16.227 302.108 18.5906C302.108 20.8951 300.255 22.5497 298.084 22.5497Z" fill="white"></path> <path d="M322.549 5.29565H325.615V25.1502H322.549V5.29565Z" fill="white"></path> <path d="M335.068 22.5497C333.471 22.5497 332.386 21.8997 331.619 20.5406L341.136 16.936L340.817 16.1679C340.242 14.6906 338.39 11.9724 334.749 11.9724C331.108 11.9724 328.042 14.6315 328.042 18.5315C328.042 22.1951 331.044 25.0906 335.068 25.0906C338.326 25.0906 340.178 23.2588 341.009 22.1951L338.581 20.7179C337.751 21.8406 336.665 22.5497 335.068 22.5497ZM334.877 14.4542C336.154 14.4542 337.24 15.0451 337.559 15.8724L331.172 18.3542C331.108 15.636 333.28 14.4542 334.877 14.4542Z" fill="white"></path> </g> <g clip-path="url(#clip1_1017_14143)"> <path d="M206.878 17.5788L208.159 17.2791C208.182 17.2712 208.229 17.2633 208.284 17.2476C208.638 17.1529 208.937 16.9242 209.125 16.6088C209.314 16.2933 209.377 15.9226 209.29 15.5599C209.29 15.552 209.29 15.5441 209.282 15.5362C209.243 15.3627 209.164 15.205 209.062 15.0551C208.921 14.8737 208.74 14.7239 208.544 14.6056C208.308 14.4715 208.057 14.3532 207.805 14.2586L206.407 13.746C205.621 13.4542 204.835 13.1703 204.042 12.8864C203.523 12.705 203.091 12.5394 202.714 12.4211C202.643 12.3974 202.565 12.3737 202.502 12.358C202.046 12.216 201.724 12.1608 201.449 12.1529C201.268 12.145 201.088 12.1766 200.915 12.2476C200.742 12.3264 200.585 12.4368 200.451 12.5788C200.388 12.6498 200.326 12.7286 200.271 12.8075C200.216 12.8864 200.168 12.9731 200.129 13.0599C200.082 13.1545 200.043 13.2491 200.003 13.3438C199.744 14.1166 199.611 14.9289 199.618 15.7412C199.626 16.4747 199.642 17.4211 200.043 18.0599C200.137 18.2255 200.271 18.3674 200.428 18.4778C200.718 18.675 201.009 18.7065 201.308 18.7223C201.756 18.7539 202.196 18.6435 202.635 18.5409L206.878 17.5788Z" fill="white"></path> <path d="M221.138 10.765C220.793 10.0315 220.321 9.3612 219.748 8.7776C219.677 8.70662 219.598 8.63565 219.512 8.57255C219.433 8.51735 219.355 8.46214 219.268 8.40694C219.182 8.35962 219.096 8.32019 219.009 8.28076C218.828 8.20978 218.64 8.17823 218.451 8.18612C218.271 8.19401 218.09 8.24921 217.933 8.33596C217.689 8.45426 217.422 8.65142 217.076 8.98265C217.029 9.02997 216.966 9.08517 216.911 9.14038C216.621 9.4164 216.299 9.74763 215.914 10.142C215.324 10.7413 214.735 11.3486 214.162 11.9558L213.124 13.0363C212.936 13.2334 212.763 13.4464 212.606 13.6751C212.472 13.8644 212.378 14.0852 212.331 14.306C212.299 14.4795 212.307 14.6609 212.347 14.8344C212.347 14.8423 212.347 14.8502 212.354 14.858C212.433 15.2129 212.653 15.5284 212.959 15.7256C213.266 15.9227 213.635 16.0016 213.997 15.9306C214.052 15.9227 214.099 15.9148 214.122 15.9069L219.646 14.6215C220.078 14.5189 220.525 14.4243 220.91 14.2035C221.17 14.0536 221.421 13.8959 221.594 13.5962C221.688 13.4306 221.743 13.2413 221.759 13.0521C221.845 12.295 221.453 11.4353 221.138 10.765Z" fill="white"></path> <path d="M211.247 13.0993C211.647 12.5946 211.647 11.8454 211.679 11.2224C211.797 9.164 211.922 7.11352 212.024 5.05516C212.064 4.2744 212.15 3.50942 212.103 2.72078C212.064 2.07409 212.064 1.33276 211.655 0.796487C210.932 -0.141999 209.4 -0.0631348 208.355 0.078821C208.033 0.12614 207.711 0.181345 207.397 0.260209C207.083 0.339073 206.76 0.417938 206.454 0.520461C205.448 0.851692 204.042 1.45895 203.798 2.61825C203.665 3.27283 203.979 3.94317 204.231 4.54254C204.529 5.2681 204.938 5.92267 205.315 6.60879C206.305 8.41478 207.31 10.205 208.316 12.0031C208.615 12.5394 208.945 13.2176 209.526 13.4936C209.565 13.5094 209.605 13.5252 209.644 13.541C209.903 13.6435 210.186 13.6593 210.461 13.5962C210.477 13.5962 210.492 13.5883 210.508 13.5883C210.759 13.5173 210.987 13.3832 211.16 13.194C211.184 13.1624 211.215 13.1309 211.247 13.0993Z" fill="white"></path> <path d="M210.767 18.6041C210.61 18.3833 210.39 18.2177 210.131 18.1309C209.871 18.0442 209.596 18.0442 209.337 18.123C209.274 18.1467 209.219 18.1703 209.164 18.194C209.078 18.2413 208.992 18.2886 208.913 18.3517C208.685 18.5252 208.489 18.746 208.316 18.9669C208.269 19.0221 208.229 19.1009 208.174 19.1483L207.287 20.3785C206.784 21.0647 206.289 21.7587 205.794 22.4527C205.472 22.9022 205.197 23.2886 204.977 23.6277C204.937 23.6908 204.89 23.7618 204.851 23.817C204.584 24.2271 204.442 24.5268 204.364 24.7871C204.309 24.9606 204.285 25.1498 204.309 25.3312C204.332 25.5205 204.395 25.7098 204.497 25.8754C204.552 25.9621 204.607 26.041 204.67 26.112C204.733 26.183 204.804 26.2539 204.875 26.3249C204.953 26.3959 205.032 26.4669 205.118 26.5221C205.731 26.9479 206.407 27.2555 207.114 27.5C207.703 27.6972 208.316 27.8154 208.929 27.847C209.031 27.8549 209.141 27.847 209.243 27.8391C209.337 27.8312 209.439 27.8154 209.534 27.7997C209.628 27.776 209.722 27.7524 209.816 27.7208C209.997 27.6498 210.162 27.5473 210.296 27.4132C210.429 27.2792 210.524 27.1214 210.586 26.9479C210.689 26.6877 210.759 26.3643 210.799 25.8833C210.799 25.8123 210.814 25.7334 210.822 25.6546C210.854 25.2524 210.877 24.7792 210.901 24.2271C210.948 23.3754 210.979 22.5236 211.003 21.6719L211.058 20.1577C211.074 19.8107 211.058 19.4243 210.964 19.0773C210.924 18.9117 210.861 18.7539 210.767 18.6041Z" fill="white"></path> <path d="M220.801 20.9779C220.612 20.7729 220.353 20.5678 219.936 20.3155C219.873 20.2839 219.803 20.2366 219.74 20.1972C219.394 19.9921 218.978 19.7713 218.491 19.5032C217.744 19.0931 216.998 18.6909 216.244 18.2965L214.908 17.5868C214.837 17.5631 214.767 17.5158 214.704 17.4842C214.444 17.358 214.177 17.2476 213.894 17.1924C213.8 17.1767 213.698 17.1609 213.604 17.1609C213.541 17.1609 213.478 17.1609 213.415 17.1688C213.148 17.2082 212.905 17.3344 212.708 17.5237C212.52 17.7129 212.386 17.9574 212.347 18.2256C212.323 18.3991 212.331 18.5647 212.362 18.7382C212.425 19.0931 212.582 19.448 212.747 19.7555L213.462 21.0962C213.855 21.8533 214.256 22.6025 214.672 23.3517C214.939 23.8407 215.159 24.2587 215.364 24.6057C215.403 24.6688 215.45 24.7398 215.482 24.8028C215.733 25.2208 215.937 25.4811 216.142 25.6704C216.275 25.7965 216.432 25.8991 216.605 25.9543C216.786 26.0174 216.982 26.0331 217.171 26.0174C217.265 26.0095 217.367 25.9858 217.461 25.97C217.556 25.9464 217.65 25.9148 217.736 25.8754C217.839 25.836 217.933 25.7965 218.019 25.7413C218.561 25.4338 219.056 25.0631 219.504 24.6293C220.038 24.101 220.502 23.5331 220.871 22.8786C220.918 22.7839 220.966 22.6893 221.005 22.5868C221.036 22.4921 221.068 22.4054 221.091 22.3107C221.115 22.2161 221.131 22.1136 221.138 22.0189C221.154 21.8297 221.131 21.6325 221.076 21.4511C221.028 21.2697 220.926 21.112 220.801 20.9779Z" fill="white"></path> <path fill-rule="evenodd" clip-rule="evenodd" d="M174.941 7.96531C174.941 6.86121 175.836 5.96216 176.913 5.96216C177.981 5.96216 178.837 6.86121 178.885 7.98109V23.6199C178.885 24.724 177.989 25.623 176.913 25.623C175.805 25.623 174.941 24.724 174.941 23.6199V7.96531ZM173.11 17.6183C173.094 17.9259 173.016 18.5016 172.615 18.9196C172.183 19.3691 171.594 19.4795 171.256 19.4795C169.841 19.4874 168.435 19.4874 167.021 19.4953C165.607 19.4953 164.2 19.5032 162.786 19.5111C162.912 19.8975 163.155 20.489 163.713 21.0331C164.051 21.3565 164.373 21.5458 164.515 21.6246C164.687 21.735 165.269 22.0426 166 22.0426C166.77 22.0426 167.453 21.7902 168.113 21.4511L168.168 21.4196C168.632 21.183 169.103 20.9306 169.606 20.8439C170.101 20.765 170.627 20.8596 171.012 21.1988C171.476 21.601 171.656 22.1924 171.491 22.7997C171.287 23.4858 170.721 24.0694 170.116 24.4322C169.779 24.6372 169.409 24.8029 169.04 24.9448C168.561 25.1183 168.066 25.2366 167.571 25.3155C167.076 25.3943 166.565 25.4259 166.062 25.4101C165.819 25.4101 165.552 25.4101 165.292 25.3786C165.017 25.347 164.735 25.2839 164.475 25.2208C164.043 25.1262 163.643 24.9842 163.242 24.8029C162.857 24.6294 162.472 24.4164 162.118 24.1641C161.765 23.9117 161.443 23.6199 161.128 23.3123C160.838 23.0047 160.555 22.6577 160.311 22.2871C159.478 21.0174 159.093 19.448 159.172 17.9259C159.235 16.4353 159.73 14.9448 160.626 13.7303C160.72 13.5805 160.838 13.4464 160.94 13.3281C160.987 13.2729 161.034 13.2256 161.073 13.1704C162.181 11.8139 163.658 11.388 164.263 11.2066L164.295 11.1988C166.039 10.7019 167.484 11.0252 168.074 11.1988C168.364 11.2776 170.014 11.7902 171.295 13.1704C171.358 13.2335 171.523 13.4306 171.743 13.7303C172.552 14.8423 172.835 15.8754 172.929 16.2224V16.2303C173.016 16.5773 173.11 17.0426 173.11 17.6183ZM164.051 15.0552C163.155 15.7887 162.912 16.7193 162.849 17.0111H169.574C169.512 16.735 169.252 15.7808 168.357 15.0552C167.445 14.3218 166.487 14.2823 166.196 14.2823C165.897 14.2823 164.947 14.3297 164.051 15.0552ZM189.633 10.9464C187.873 10.9464 186.27 11.735 185.131 13.0284V12.9811C185.084 11.9401 184.219 11.1041 183.174 11.1041C182.082 11.1041 181.202 11.9874 181.202 13.0915V28.0126C181.202 29.1167 182.082 30 183.174 30C184.266 30 185.146 29.1167 185.146 28.0126V27.4369V23.3517C186.286 24.6215 187.881 25.4338 189.648 25.4338C193.184 25.4338 196.052 22.2161 196.052 18.2098C196.036 14.2035 193.168 10.9464 189.633 10.9464ZM188.768 22.1846C186.765 22.1846 185.131 20.4259 185.131 18.2413C185.131 16.0331 186.749 14.2823 188.768 14.2823C190.772 14.2823 192.406 16.041 192.406 18.2413C192.39 20.4338 190.772 22.1846 188.768 22.1846ZM156.194 19.2508L155.55 20.6782C155.259 21.3013 154.961 21.9401 154.686 22.571C154.599 22.7682 154.505 22.9653 154.419 23.1704C153.185 25.9227 151.724 29.1956 148.534 29.8896C146.994 30.2287 144.661 29.7634 143.796 28.3044C142.932 26.8297 144.213 25.1341 145.863 25.5284C146.122 25.5836 146.381 25.7177 146.641 25.8439C147.073 26.0568 147.505 26.2776 147.976 26.183C148.424 26.1041 148.699 25.7808 149.053 25.3628C149.548 24.7871 149.76 24.1798 149.854 23.8249C149.846 23.8092 149.838 23.7934 149.83 23.7697C149.823 23.754 149.815 23.7303 149.807 23.7145C149.406 22.9653 149.053 22.2871 148.762 21.7271C148.573 21.3644 148.408 21.041 148.267 20.7808C147.976 20.2366 147.764 19.8186 147.591 19.5032C147.096 18.5647 147.018 18.407 146.798 18.0047C146.318 17.0899 145.808 16.2066 145.289 15.3155C144.716 14.3533 144.134 13.2808 144.614 12.1451C144.999 11.2303 145.988 10.765 146.931 11.0568C147.913 11.3565 148.353 12.3029 148.77 13.194C148.84 13.3517 148.919 13.5095 148.99 13.6672C149.65 14.9842 150.302 16.3092 150.946 17.6262C151.001 17.7603 151.087 17.9338 151.197 18.1546C151.292 18.3517 151.402 18.5726 151.52 18.8249C151.582 18.9511 151.637 19.0773 151.692 19.1798C151.763 19.3218 151.818 19.4401 151.857 19.5347C152.156 18.7776 152.462 18.0284 152.769 17.2792C153.075 16.53 153.382 15.7808 153.68 15.0237C153.688 14.9842 153.759 14.8186 153.869 14.582C153.963 14.377 154.081 14.1167 154.207 13.817C154.246 13.7145 154.293 13.612 154.34 13.5016C154.741 12.5237 155.22 11.3407 156.289 11.0253C157.059 10.7887 157.923 11.1041 158.371 11.7587C158.599 12.082 158.693 12.4606 158.709 12.8312C158.724 13.6593 158.324 14.5426 157.986 15.2997C157.899 15.4811 157.821 15.6625 157.75 15.8281C157.75 15.836 157.734 15.8675 157.711 15.9227C157.616 16.1357 157.357 16.7114 156.917 17.6656C156.76 18.0047 156.603 18.3439 156.454 18.6909C156.367 18.8723 156.281 19.0615 156.194 19.2508Z" fill="white"></path> <path d="M197.545 24.1246H197.686C197.757 24.1246 197.812 24.1088 197.859 24.0694C197.898 24.03 197.922 23.9827 197.922 23.9275C197.922 23.8644 197.906 23.817 197.867 23.7855C197.828 23.754 197.773 23.7382 197.686 23.7382H197.545V24.1246ZM198.118 23.9275C198.118 23.9984 198.103 24.0615 198.063 24.1167C198.024 24.1719 197.977 24.2114 197.906 24.235L198.22 24.7634H198L197.725 24.2902H197.545V24.7634H197.348V23.5805H197.694C197.843 23.5805 197.945 23.612 198.016 23.6672C198.087 23.7224 198.118 23.8092 198.118 23.9275ZM196.72 24.1641C196.72 23.9905 196.767 23.817 196.853 23.6672C196.94 23.5095 197.065 23.3912 197.215 23.2965C197.372 23.2098 197.537 23.1625 197.718 23.1625C197.89 23.1625 198.063 23.2098 198.213 23.2965C198.37 23.3833 198.487 23.5095 198.582 23.6593C198.668 23.817 198.715 23.9827 198.715 24.1641C198.715 24.3376 198.676 24.5032 198.59 24.653C198.503 24.8029 198.385 24.929 198.228 25.0237C198.071 25.1183 197.906 25.1656 197.718 25.1656C197.537 25.1656 197.364 25.1183 197.215 25.0316C197.058 24.9369 196.94 24.8186 196.853 24.6609C196.767 24.5032 196.72 24.3454 196.72 24.1641ZM196.861 24.1641C196.861 24.3139 196.9 24.4637 196.979 24.5978C197.058 24.7319 197.16 24.8344 197.293 24.9133C197.427 24.9921 197.568 25.0237 197.718 25.0237C197.875 25.0237 198.016 24.9842 198.142 24.9054C198.275 24.8265 198.377 24.724 198.456 24.5899C198.535 24.4558 198.574 24.3139 198.574 24.1562C198.574 23.9984 198.535 23.8565 198.456 23.7303C198.377 23.5962 198.275 23.4937 198.142 23.4148C198.008 23.336 197.867 23.2965 197.71 23.2965C197.553 23.2965 197.411 23.336 197.285 23.4148C197.152 23.4937 197.05 23.5962 196.971 23.7303C196.9 23.8644 196.861 24.0142 196.861 24.1641Z" fill="white"></path> </g> <g clip-path="url(#clip2_1017_14143)"> <path d="M29.8313 9.92383H41.325V12.0777H36.8057V24.1855H34.3205V12.0777H29.8213V9.92383H29.8313ZM40.8339 13.8591H42.9583V15.8519H42.9984C43.0685 15.5701 43.1988 15.2984 43.3892 15.0367C43.5796 14.775 43.8101 14.5234 44.0806 14.312C44.3512 14.0906 44.6518 13.9195 44.9825 13.7786C45.3132 13.6478 45.6539 13.5773 45.9946 13.5773C46.2551 13.5773 46.4455 13.5874 46.5457 13.5974C46.6459 13.6075 46.7461 13.6276 46.8563 13.6377V15.8318C46.696 15.8016 46.5357 15.7815 46.3653 15.7614C46.195 15.7412 46.0346 15.7312 45.8743 15.7312C45.4935 15.7312 45.1328 15.8117 44.7921 15.9626C44.4514 16.1136 44.1608 16.3451 43.9103 16.637C43.6598 16.9389 43.4593 17.3013 43.309 17.7441C43.1587 18.1869 43.0886 18.6902 43.0886 19.2639V24.1754H40.8239V13.8591H40.8339ZM57.2677 24.1855H55.0432V22.7463H55.0031C54.7225 23.2696 54.3117 23.6823 53.7605 23.9943C53.2094 24.3063 52.6482 24.4673 52.0771 24.4673C50.7243 24.4673 49.7423 24.1352 49.141 23.4608C48.5398 22.7865 48.2392 21.77 48.2392 20.4112V13.8591H50.5038V20.1898C50.5038 21.0956 50.6742 21.7398 51.0249 22.1122C51.3656 22.4846 51.8566 22.6758 52.4779 22.6758C52.9589 22.6758 53.3497 22.6054 53.6703 22.4544C53.991 22.3034 54.2515 22.1122 54.4419 21.8606C54.6423 21.619 54.7826 21.3171 54.8728 20.9749C54.963 20.6327 55.0031 20.2603 55.0031 19.8577V13.8692H57.2677V24.1855ZM61.1257 20.8742C61.1958 21.5385 61.4463 22.0015 61.8772 22.2732C62.3181 22.5349 62.8392 22.6758 63.4505 22.6758C63.6609 22.6758 63.9014 22.6557 64.172 22.6255C64.4425 22.5953 64.703 22.5248 64.9335 22.4342C65.174 22.3437 65.3644 22.2028 65.5247 22.0216C65.675 21.8404 65.7452 21.6089 65.7352 21.3171C65.7251 21.0252 65.6149 20.7836 65.4145 20.6025C65.2141 20.4112 64.9636 20.2703 64.6529 20.1496C64.3423 20.0389 63.9916 19.9382 63.5908 19.8577C63.1899 19.7772 62.7891 19.6866 62.3783 19.596C61.9574 19.5054 61.5465 19.3846 61.1557 19.2538C60.7649 19.123 60.4142 18.9418 60.1036 18.7103C59.7929 18.4889 59.5424 18.197 59.3621 17.8447C59.1717 17.4925 59.0815 17.0597 59.0815 16.5363C59.0815 15.9727 59.2218 15.5097 59.4923 15.1273C59.7629 14.7448 60.1136 14.4429 60.5244 14.2114C60.9453 13.9799 61.4063 13.8189 61.9173 13.7182C62.4284 13.6276 62.9194 13.5773 63.3803 13.5773C63.9114 13.5773 64.4225 13.6377 64.9035 13.7484C65.3844 13.8591 65.8253 14.0403 66.2162 14.302C66.607 14.5536 66.9276 14.8857 67.1882 15.2883C67.4487 15.6909 67.609 16.1841 67.6792 16.7578H65.3143C65.2041 16.2143 64.9636 15.8419 64.5728 15.6607C64.182 15.4695 63.731 15.3789 63.23 15.3789C63.0697 15.3789 62.8793 15.389 62.6588 15.4192C62.4384 15.4493 62.238 15.4997 62.0376 15.5701C61.8472 15.6406 61.6868 15.7513 61.5466 15.8922C61.4163 16.0331 61.3461 16.2143 61.3461 16.4458C61.3461 16.7276 61.4463 16.949 61.6367 17.1201C61.8271 17.2912 62.0776 17.4321 62.3883 17.5529C62.6989 17.6636 63.0496 17.7642 63.4505 17.8447C63.8513 17.9253 64.2621 18.0158 64.683 18.1064C65.0938 18.197 65.4947 18.3178 65.8955 18.4486C66.2963 18.5795 66.647 18.7606 66.9577 18.9921C67.2683 19.2236 67.5188 19.5054 67.7092 19.8476C67.8996 20.1898 67.9998 20.6226 67.9998 21.1258C67.9998 21.7398 67.8595 22.2531 67.579 22.6859C67.2984 23.1086 66.9376 23.4609 66.4967 23.7225C66.0558 23.9842 65.5548 24.1855 65.0137 24.3063C64.4726 24.4271 63.9315 24.4875 63.4004 24.4875C62.749 24.4875 62.1478 24.417 61.5967 24.266C61.0455 24.1151 60.5645 23.8936 60.1637 23.6018C59.7629 23.2998 59.4422 22.9274 59.2117 22.4846C58.9813 22.0417 58.861 21.5083 58.841 20.8944H61.1257V20.8742ZM68.6011 13.8591H70.3146V10.7592H72.5792V13.8591H74.6235V15.5601H72.5792V21.0755C72.5792 21.3171 72.5893 21.5184 72.6093 21.6995C72.6293 21.8706 72.6795 22.0216 72.7496 22.1424C72.8197 22.2632 72.93 22.3537 73.0803 22.4141C73.2306 22.4745 73.421 22.5047 73.6815 22.5047C73.8418 22.5047 74.0022 22.5047 74.1625 22.4946C74.3228 22.4846 74.4832 22.4644 74.6435 22.4242V24.1855C74.393 24.2157 74.1425 24.2358 73.912 24.266C73.6715 24.2962 73.431 24.3063 73.1805 24.3063C72.5792 24.3063 72.0983 24.2459 71.7375 24.1352C71.3768 24.0245 71.0862 23.8534 70.8858 23.632C70.6753 23.4105 70.5451 23.1388 70.4649 22.8066C70.3948 22.4745 70.3447 22.0921 70.3346 21.6693V15.5802H68.6211V13.8591H68.6011ZM76.2267 13.8591H78.3712V15.2581H78.4112C78.7319 14.6542 79.1728 14.2315 79.744 13.9698C80.3152 13.7082 80.9264 13.5773 81.5978 13.5773C82.4095 13.5773 83.1109 13.7182 83.7122 14.0101C84.3134 14.2919 84.8144 14.6844 85.2152 15.1877C85.6161 15.6909 85.9067 16.2747 86.1071 16.9389C86.3075 17.6032 86.4077 18.3178 86.4077 19.0726C86.4077 19.7671 86.3175 20.4414 86.1371 21.0856C85.9568 21.7398 85.6862 22.3135 85.3255 22.8167C84.9647 23.3199 84.5038 23.7125 83.9426 24.0144C83.3815 24.3163 82.7301 24.4673 81.9686 24.4673C81.6379 24.4673 81.3072 24.4371 80.9765 24.3767C80.6458 24.3163 80.3252 24.2157 80.0246 24.0849C79.7239 23.954 79.4333 23.7829 79.1828 23.5716C78.9223 23.3602 78.7119 23.1186 78.5315 22.8469H78.4914V28H76.2267V13.8591ZM84.143 19.0324C84.143 18.5694 84.0829 18.1165 83.9627 17.6736C83.8424 17.2308 83.662 16.8483 83.4216 16.5061C83.1811 16.1639 82.8804 15.8922 82.5297 15.6909C82.169 15.4896 81.7581 15.3789 81.2972 15.3789C80.3452 15.3789 79.6237 15.711 79.1427 16.3753C78.6618 17.0396 78.4213 17.9253 78.4213 19.0324C78.4213 19.5557 78.4814 20.0389 78.6117 20.4817C78.7419 20.9245 78.9223 21.307 79.1828 21.6291C79.4333 21.9511 79.734 22.2028 80.0847 22.3839C80.4354 22.5752 80.8463 22.6657 81.3072 22.6657C81.8283 22.6657 82.2592 22.555 82.6199 22.3437C82.9806 22.1323 83.2712 21.8505 83.5017 21.5184C83.7322 21.1762 83.9025 20.7937 84.0027 20.3609C84.0929 19.9281 84.143 19.4853 84.143 19.0324ZM88.1413 9.92383H90.4059V12.0777H88.1413V9.92383ZM88.1413 13.8591H90.4059V24.1855H88.1413V13.8591ZM92.4301 9.92383H94.6947V24.1855H92.4301V9.92383ZM101.639 24.4673C100.817 24.4673 100.086 24.3264 99.4445 24.0547C98.8032 23.7829 98.2621 23.4005 97.8111 22.9274C97.3702 22.4443 97.0295 21.8706 96.7991 21.2064C96.5686 20.5421 96.4483 19.8074 96.4483 19.0123C96.4483 18.2272 96.5686 17.5025 96.7991 16.8383C97.0295 16.174 97.3702 15.6003 97.8111 15.1172C98.2521 14.6341 98.8032 14.2617 99.4445 13.99C100.086 13.7182 100.817 13.5773 101.639 13.5773C102.461 13.5773 103.192 13.7182 103.834 13.99C104.475 14.2617 105.016 14.6442 105.467 15.1172C105.908 15.6003 106.249 16.174 106.479 16.8383C106.709 17.5025 106.83 18.2272 106.83 19.0123C106.83 19.8074 106.709 20.5421 106.479 21.2064C106.249 21.8706 105.908 22.4443 105.467 22.9274C105.026 23.4105 104.475 23.7829 103.834 24.0547C103.192 24.3264 102.461 24.4673 101.639 24.4673ZM101.639 22.6657C102.14 22.6657 102.581 22.555 102.952 22.3437C103.322 22.1323 103.623 21.8505 103.864 21.5083C104.104 21.1661 104.274 20.7736 104.395 20.3408C104.505 19.908 104.565 19.4652 104.565 19.0123C104.565 18.5694 104.505 18.1366 104.395 17.6938C104.284 17.2509 104.104 16.8685 103.864 16.5263C103.623 16.1841 103.322 15.9123 102.952 15.701C102.581 15.4896 102.14 15.3789 101.639 15.3789C101.138 15.3789 100.697 15.4896 100.326 15.701C99.9556 15.9123 99.6549 16.1941 99.4144 16.5263C99.174 16.8685 99.0036 17.2509 98.8833 17.6938C98.7731 18.1366 98.713 18.5694 98.713 19.0123C98.713 19.4652 98.7731 19.908 98.8833 20.3408C98.9936 20.7736 99.174 21.1661 99.4144 21.5083C99.6549 21.8505 99.9556 22.1323 100.326 22.3437C100.697 22.5651 101.138 22.6657 101.639 22.6657ZM107.491 13.8591H109.205V10.7592H111.469V13.8591H113.513V15.5601H111.469V21.0755C111.469 21.3171 111.479 21.5184 111.499 21.6995C111.519 21.8706 111.569 22.0216 111.64 22.1424C111.71 22.2632 111.82 22.3537 111.97 22.4141C112.121 22.4745 112.311 22.5047 112.572 22.5047C112.732 22.5047 112.892 22.5047 113.052 22.4946C113.213 22.4846 113.373 22.4644 113.533 22.4242V24.1855C113.283 24.2157 113.032 24.2358 112.802 24.266C112.561 24.2962 112.321 24.3063 112.07 24.3063C111.469 24.3063 110.988 24.2459 110.628 24.1352C110.267 24.0245 109.976 23.8534 109.776 23.632C109.565 23.4105 109.435 23.1388 109.355 22.8066C109.285 22.4745 109.235 22.0921 109.225 21.6693V15.5802H107.511V13.8591H107.491Z" fill="white"></path> <path fill-rule="evenodd" clip-rule="evenodd" d="M16.8046 9.9238H27.1859L18.7886 16.0532L18.7887 16.0533L13.598 19.8376L13.598 19.8375L5.19068 25.9669L8.40729 16.0532L0 9.91373L10.3814 9.9238L13.598 0L16.8046 9.9238ZM18.7988 16.0847L21.9952 25.9669L13.598 19.8376L19.5102 18.2977L18.7988 16.0847Z" fill="white"></path> </g> <defs> <clipPath id="clip0_1017_14143"> <rect width="89.3617" height="28" fill="white" transform="translate(251.774 4)"></rect> </clipPath> <clipPath id="clip1_1017_14143"> <rect width="78.2609" height="30" fill="white" transform="translate(143.514)"></rect> </clipPath> <clipPath id="clip2_1017_14143"> <rect width="113.514" height="28" fill="white"></rect> </clipPath> </defs> </svg> 