<?xml version="1.0" encoding="UTF-8"?> <svg xmlns="http://www.w3.org/2000/svg" width="317" height="30" viewBox="0 0 317 30" fill="none"> <path d="M156 29.99H161.51L176.85 0H171.35L156 29.99Z" fill="white"></path> <path d="M197.75 29.99H203.2L188.12 0H187.38H181.96V29.99H187.44V23.83H194.6L197.75 29.99ZM192.38 19.44H187.45V9.77L192.38 19.44Z" fill="white"></path> <path d="M177.24 9.78003L172.32 19.47H177.24V9.78003Z" fill="white"></path> <path d="M166.98 29.9999H177.26V23.9399H170.05L166.98 29.9999Z" fill="white"></path> <path d="M204.82 25.73C205.69 25.73 206.38 26.44 206.38 27.32C206.38 28.22 205.69 28.92 204.81 28.92C203.94 28.92 203.23 28.22 203.23 27.32C203.24 26.43 203.94 25.73 204.82 25.73ZM204.82 25.97C204.12 25.97 203.54 26.57 203.54 27.32C203.54 28.08 204.11 28.67 204.82 28.67C205.53 28.68 206.1 28.07 206.1 27.33C206.1 26.58 205.53 25.97 204.82 25.97ZM204.51 28.25H204.23V26.47C204.38 26.45 204.52 26.43 204.73 26.43C205 26.43 205.18 26.49 205.28 26.57C205.38 26.65 205.44 26.77 205.44 26.94C205.44 27.17 205.28 27.32 205.09 27.37V27.38C205.25 27.41 205.35 27.55 205.39 27.81C205.43 28.08 205.48 28.19 205.5 28.25H205.2C205.16 28.19 205.12 28.03 205.08 27.8C205.04 27.57 204.93 27.49 204.7 27.49H204.5V28.25H204.51ZM204.51 27.26H204.72C204.95 27.26 205.15 27.18 205.15 26.96C205.15 26.8 205.04 26.65 204.72 26.65C204.63 26.65 204.56 26.66 204.51 26.66V27.26Z" fill="white"></path> <g clip-path="url(#clip0_1027_456)"> <path fill-rule="evenodd" clip-rule="evenodd" d="M315.538 14.9686C311.511 23.2704 293.703 30 275.895 30C258.445 30 247.279 23.5388 250.625 15.4683C250.598 16.0749 250.721 16.6289 251.001 17.1162C250.174 23.7432 260.414 28.805 275.769 28.805C292.885 28.805 310.001 22.5157 313.84 14.7798C317.678 7.04399 306.918 0.754688 289.802 0.754688C276.616 0.754688 263.392 4.515 256.269 9.79678C255.787 9.87746 255.324 10.002 254.88 10.1704C262.085 4.26944 276.309 0 290.494 0C308.302 0 319.566 6.72956 315.538 14.9686Z" fill="white"></path> <path fill-rule="evenodd" clip-rule="evenodd" d="M308.743 14.6541C310.615 10.9788 308.758 7.65855 304.284 5.35332L304.527 4.59116L303.547 4.99373C299.61 3.17361 293.915 2.07544 287.096 2.07544C282.314 2.07544 277.531 2.57858 273.001 3.58487C272.308 3.71066 271.679 3.83645 271.05 4.02513C266.503 5.17718 262.397 6.75261 259.161 8.61055C258.696 8.53054 258.191 8.49053 257.647 8.49053C255.759 8.49053 254.123 8.99368 252.675 9.99997L251.92 10.566C251.92 8.61632 251.417 7.23267 250.284 6.35217C249.34 5.53456 247.956 5.1572 246.005 5.1572C243.74 5.1572 241.663 5.78613 240.027 6.9811C238.328 8.17607 237.133 9.93707 236.503 12.1383C235.937 13.8364 235.874 15.3459 236.314 16.5408C236.755 17.7987 237.51 18.6792 238.58 19.1824C239.524 19.6226 240.782 19.8742 242.355 19.8742C243.677 19.8742 244.81 19.6855 245.753 19.3081C246.697 18.9308 247.641 18.4276 248.459 17.6729C248.837 17.3585 249.277 16.8553 249.655 16.4151C249.844 17.3585 250.347 18.0503 250.725 18.4276C251.161 18.864 251.692 19.1927 252.317 19.42C254.214 23.993 262.611 27.2327 274.322 27.2327C289.739 27.2327 305.219 21.5723 308.743 14.6541ZM273.693 4.27672C268.474 5.4243 263.697 6.93721 260.076 8.83671C260.836 9.08948 261.458 9.48068 261.941 10.0103C265.298 7.44039 270.598 5.24808 276.587 3.96225C277.259 3.79454 277.93 3.68273 278.601 3.57092C278.937 3.51501 279.272 3.45911 279.608 3.39622C277.594 3.58489 275.643 3.89936 273.693 4.27672ZM254.878 19.8113C256.519 19.8113 258.018 19.4308 259.333 18.6699C259.589 18.9914 259.888 19.3025 260.228 19.602L259.094 23.0817H265.072L265.312 22.3051C268.561 23.3922 272.78 24.0251 277.657 24.0251C285.372 24.0251 293.086 22.4382 298.826 19.9875C299.529 19.9514 300.308 19.8393 301.129 19.6855L301.632 19.5597L301.884 19.4968L302.117 18.3619C303.421 17.6134 304.552 16.813 305.471 15.9748C306.477 15.0943 307.107 14.2138 307.673 13.0817C308.239 11.6352 308.113 10.1887 307.358 8.93081C308.554 10.566 308.806 12.5157 307.673 14.5283C307.623 14.612 307.573 14.7001 307.521 14.7903L307.521 14.7905C307.379 15.0393 307.228 15.3039 307.044 15.5346C306.477 16.3522 305.722 17.1698 305.03 17.7358C299.178 22.7044 286.97 26.3522 274.825 26.3522C264.415 26.3522 256.695 23.6943 254.158 19.7867C254.39 19.8031 254.63 19.8113 254.878 19.8113ZM245.061 13.5849C244.81 14.0251 244.495 14.3396 244.243 14.5283C243.929 14.7798 243.551 14.9056 243.048 14.9056C242.733 14.9056 242.481 14.8427 242.418 14.7169C242.418 14.7169 242.292 14.2767 242.733 12.893C243.048 12.0125 243.362 11.3207 243.74 10.9434C244.243 10.4402 244.747 10.2515 245.313 10.2515C245.502 10.2515 245.691 10.2515 245.753 10.3144C245.764 10.3252 245.775 10.3342 245.786 10.3428C245.836 10.3847 245.879 10.4205 245.879 10.6289L245.942 11.6981H250.913C250.599 12.0754 250.347 12.5157 250.158 13.0188H245.376L245.061 13.5849ZM256.954 13.8993C256.766 14.4654 256.514 14.9056 256.262 15.0943C256.01 15.283 255.759 15.4088 255.507 15.4088H255.381C255.381 15.3459 255.381 15.0943 255.507 14.5912C255.633 14.088 255.885 13.6478 256.199 13.3962C256.451 13.2075 256.703 13.0817 256.954 13.0817H257.017C257.08 13.2075 257.08 13.3962 256.954 13.8993ZM249.781 14.2138C249.34 15.1572 248.459 16.2893 247.704 16.9811C246.949 17.61 246.194 18.0503 245.502 18.4276C244.621 18.805 243.614 18.9308 242.481 18.9308C241.034 18.9308 239.964 18.7421 239.209 18.3647C238.391 17.9874 237.888 17.2955 237.51 16.3521C237.132 15.3459 237.195 14.1509 237.699 12.6415C238.328 10.6289 239.398 9.11944 240.845 8.05026C242.355 6.98108 244.117 6.41504 246.194 6.41504C247.83 6.41504 248.963 6.7295 249.718 7.35844C250.725 8.17605 250.913 9.4968 250.913 10.6918H247.138C247.075 10.1257 246.886 9.68548 246.383 9.43391C246.131 9.24523 245.753 9.18233 245.376 9.18233C244.495 9.18233 243.677 9.4968 242.985 10.1886C242.418 10.6918 242.041 11.5094 241.663 12.5786C241.286 13.8993 241.16 14.8427 241.474 15.3459C241.726 15.849 242.292 16.1006 243.048 16.1006C243.803 16.1006 244.432 15.849 244.935 15.4716C245.313 15.1572 245.69 14.7169 246.005 14.2138H249.781ZM258.024 14.2138C257.772 15.0314 257.395 15.5974 256.954 15.9748C256.514 16.3521 256.073 16.5408 255.507 16.4779C255.004 16.4779 254.626 16.2893 254.437 15.9119C254.186 15.5345 254.186 14.9685 254.437 14.2138C254.626 13.4591 255.004 12.893 255.444 12.5157C255.947 12.1383 256.388 11.9496 256.954 11.9496C257.458 11.9496 257.835 12.1383 258.024 12.5157C258.276 12.893 258.276 13.4591 258.024 14.2138ZM261.422 11.1949C260.793 10.1886 259.534 9.68548 257.646 9.68548C256.01 9.68548 254.563 10.1257 253.305 11.0062C252.109 11.8238 251.291 12.9559 250.85 14.2767C250.41 15.6603 250.599 16.8553 251.48 17.7358C252.172 18.4276 253.305 18.805 254.815 18.805C256.514 18.805 257.961 18.3647 259.157 17.4842C260.352 16.6666 261.17 15.5345 261.611 14.2138C261.988 13.0188 261.925 12.0125 261.422 11.1949ZM268.847 15.849C269.225 15.5345 269.54 14.9685 269.791 14.2138C269.98 13.4591 270.043 12.9559 269.791 12.6415C269.603 12.2641 269.351 12.1383 268.91 12.1383C268.407 12.1383 268.029 12.327 267.589 12.6415C267.211 12.9559 266.897 13.522 266.645 14.2767C266.456 14.9685 266.456 15.5345 266.645 15.849C266.834 16.1635 267.148 16.3521 267.652 16.3521C268.092 16.3521 268.47 16.1635 268.847 15.849ZM270.798 9.68548C272.057 9.68548 272.875 10.1257 273.315 11.0062C273.756 11.8867 273.756 13.0188 273.252 14.3396C272.812 15.7861 272.12 16.9182 271.113 17.6729C270.169 18.4276 269.099 18.805 267.966 18.805C267.4 18.805 266.897 18.7421 266.519 18.5534C266.079 18.4276 265.764 18.176 265.512 17.7987L264.191 21.9496H260.604L264.38 9.87416H267.715L267.337 11.132C267.966 10.6289 268.533 10.2515 268.973 10.0628C269.54 9.81127 270.169 9.68548 270.798 9.68548ZM281.045 15.3185C280.92 15.5933 280.802 15.8504 280.615 16.0377C280.426 16.2893 280.111 16.4779 279.608 16.7295C279.23 16.9182 278.853 16.9811 278.412 16.9811C278.035 16.9811 277.783 16.9182 277.657 16.7295C277.531 16.6037 277.531 16.3521 277.594 16.1006C277.657 15.849 277.846 15.6603 278.098 15.4716C278.349 15.283 278.916 15.0943 279.671 14.9056C280.3 14.7798 280.803 14.654 281.37 14.4654L281.181 15.0314C281.133 15.1278 281.089 15.2242 281.045 15.3185ZM285.46 11.5723C285.46 11.132 285.334 10.8176 285.082 10.566C284.768 10.1886 284.327 9.93705 283.635 9.93705C283.069 9.81127 282.188 9.74837 281.118 9.74837C280.489 9.74837 279.86 9.81127 279.23 9.87416C278.664 9.93705 278.161 10.0628 277.783 10.2515C277.217 10.5031 276.776 10.7547 276.462 11.0691C276.084 11.3836 275.769 11.8238 275.455 12.3899L278.79 12.6415C279.104 12.2641 279.356 12.0125 279.608 11.8867C279.922 11.6981 280.426 11.6352 280.992 11.6352C281.433 11.6352 281.747 11.6981 281.873 11.8867C281.999 12.0754 281.999 12.327 281.873 12.7672C281.37 12.893 280.929 13.0188 280.489 13.1446C280.274 13.1753 279.955 13.2358 279.516 13.3189C279.055 13.4064 278.462 13.5188 277.72 13.6477C276.524 13.8364 275.643 14.1509 275.077 14.5911C274.511 15.0314 274.133 15.5974 273.944 16.2264C273.756 16.9182 273.819 17.4842 274.259 17.9874C274.7 18.4905 275.455 18.7421 276.587 18.7421C277.405 18.7421 278.223 18.6163 278.916 18.3647C279.482 18.176 280.048 17.9245 280.615 17.4842C280.552 17.7358 280.552 17.9245 280.552 18.0503C280.552 18.128 280.576 18.2057 280.609 18.3132C280.63 18.3796 280.654 18.4573 280.678 18.5534H284.013C283.95 18.176 283.95 17.9245 283.95 17.6729C283.95 17.4842 284.013 17.1698 284.139 16.7295L285.334 12.893C285.46 12.4528 285.46 12.0125 285.46 11.5723ZM291.816 9.87416H288.48L285.712 18.6163H289.299L290.242 15.6603C290.683 14.2138 291.186 13.2704 291.69 12.7672C292.067 12.4528 292.445 12.2641 292.948 12.2641C293.2 12.2641 293.515 12.327 293.892 12.5157L295.717 10.1257C295.214 9.81127 294.71 9.68548 294.144 9.68548C293.64 9.68548 293.2 9.81127 292.759 10.0628C292.382 10.3144 291.879 10.6918 291.375 11.3207L291.816 9.87416ZM302.702 6.54082L301.632 9.87416V9.93705H303.646L302.891 12.3899H300.94L299.996 15.4716C299.87 15.849 299.87 16.1006 299.87 16.2264C299.87 16.415 300.059 16.5408 300.374 16.5408C300.582 16.5408 300.92 16.4545 301.316 16.3534C301.398 16.3324 301.483 16.3108 301.569 16.2893L301.066 18.6163C300.122 18.805 299.241 18.8679 298.486 18.8679C297.605 18.8679 296.976 18.7421 296.598 18.5534C296.22 18.3018 296.032 17.9874 295.969 17.5471C295.906 17.1069 296.032 16.415 296.346 15.4087L297.29 12.327H295.969L296.724 9.87416H298.045L298.549 8.23894L302.702 6.54082Z" fill="white"></path> </g> <path d="M46.2157 23.5733L39.5984 9.71918H39.5578L38.8569 21.4035C38.7739 22.7347 39.7626 23.0101 40.9297 23.0649V23.5592H35.5342V23.0649C37.4427 23.0649 37.6616 22.6394 37.7994 20.2912L38.4314 10.1853C38.5268 8.46919 38.4862 8.00132 36.8654 7.89185V7.43811H40.7919L47.0384 20.5225L53.2725 7.43811H57.0896V7.90421C55.8131 8.01368 55.3329 8.04192 55.3735 8.9194L56.198 20.6867C56.3622 23.0755 56.5688 23.0755 58.4632 23.0755V23.5698H51.7895V23.0755C53.0112 23.0755 54.2065 22.7453 54.097 21.3594L53.3273 9.71565H53.2866L46.8195 23.5557L46.2157 23.5733Z" fill="white"></path> <path d="M63.9002 18.7271C63.4059 19.0025 62.8974 19.2497 62.3625 19.4545C60.7699 20.1007 60.1785 20.3602 60.1785 21.4177C60.1644 22.2546 60.837 22.9414 61.6615 22.9555C61.6757 22.9555 61.6898 22.9555 61.7022 22.9555C62.1135 22.9555 62.4296 22.8319 63.8861 21.8167L63.9002 18.7271ZM58.7661 16.3789C58.7255 16.2694 58.6972 16.1458 58.6972 16.0081C58.6972 15.1024 60.8529 12.9873 62.5408 12.9873C63.6125 13.0014 64.6135 13.5099 65.2597 14.3609C65.6446 14.91 65.6446 15.2401 65.6446 16.5855V20.0724C65.6446 22.1451 65.6446 22.6254 66.3314 22.6254C66.8116 22.6112 67.2654 22.4064 67.5937 22.048L67.7315 22.4329C66.3314 23.5717 65.604 23.8612 65.1502 23.8612C64.0927 23.8612 63.9832 22.6942 63.9691 22.2829C62.17 23.7659 61.6615 23.8612 60.9483 23.8612C59.7812 24.0254 58.7096 23.2027 58.5454 22.0357C58.5312 21.9403 58.5313 21.8291 58.5313 21.7338C58.5313 20.1554 59.9454 19.6063 61.5927 19.1932C62.4031 18.9866 63.1852 18.6441 63.9002 18.2045V16.1582C63.9956 15.5685 63.8314 14.9629 63.4606 14.4968C63.104 14.0431 62.5673 13.7694 62.0058 13.7412C61.2361 13.7271 60.5634 14.2638 60.3992 15.0177C60.3992 15.196 60.4398 15.3602 60.5228 15.512L58.7661 16.3789Z" fill="white"></path> <path d="M70.6291 21.3082C70.6291 22.7224 70.9716 23.065 72.3734 23.065V23.5593H67.1562V23.065C67.9931 23.1744 68.777 22.5847 68.8865 21.7461C68.9006 21.6366 68.9006 21.5272 68.9006 21.4159V15.9657C68.9006 15.0053 68.7911 14.827 68.1185 14.6892L67.2392 14.5109V14.0996L70.2195 13.0155H70.6308V15.0335C72.3752 13.9354 73.83 12.9731 75.1065 12.9731C76.8773 12.9731 77.8801 14.2779 77.8801 16.8732C77.8801 20.3337 77.7018 20.9922 77.6736 22.0092C77.6453 22.7101 78.0584 23.0526 79.1425 23.0526H79.7057V23.5611H74.1178V23.0667C74.6527 23.095 75.1894 22.929 75.6008 22.5724C76.0952 22.078 76.1358 20.1836 76.1358 16.7373C76.1358 14.6504 75.1329 14.0042 74.0895 14.0042C72.813 14.2655 71.6319 14.8411 70.6291 15.6656V21.3082Z" fill="white"></path> <path d="M82.23 21.515C82.23 22.7367 82.5725 23.0669 83.932 23.0669V23.5613H78.729V23.0669C80.1573 22.9839 80.4857 22.4896 80.4857 21.0754V8.63541C80.4857 8.05808 80.3762 7.85327 79.8413 7.78442L78.7148 7.62022V7.1806L81.8045 6.12305H82.2159V14.6365C83.4783 13.7166 84.949 13.1534 86.4991 13.0033C88.503 13.0033 89.3822 14.2533 89.3822 16.8752C89.3822 19.2498 89.3275 20.6923 89.2445 22.1065C89.2992 22.8074 89.6841 23.0952 91.2219 23.0952V23.5895H85.6075V23.0952C86.1301 23.1499 86.6509 22.9998 87.0623 22.6697C87.5284 22.2036 87.6396 21.0913 87.6396 17.2194C87.6396 14.4317 86.1301 14.075 85.265 14.075C84.1527 14.1986 83.0951 14.61 82.1894 15.2968L82.23 21.515Z" fill="white"></path> <path d="M98.0757 16.2978C97.7879 14.6081 96.7445 13.4976 95.4945 13.4976C94.6435 13.4976 93.3388 13.8966 92.7349 16.2978H98.0757ZM92.6661 16.9704C92.5972 17.3271 92.5707 17.6978 92.5566 18.0686C92.3783 20.3885 94.1226 22.4065 96.4426 22.5866C96.4567 22.5866 96.4708 22.5866 96.4973 22.5866C97.802 22.5866 99.0379 21.9545 99.8059 20.897L100.094 21.213C99.022 22.7508 97.3342 23.7254 95.4662 23.8772C92.9256 23.8772 90.9623 21.5696 90.9623 18.5506C90.784 15.6675 92.9662 13.1816 95.8635 12.9891C95.9041 12.9891 95.9465 12.9891 95.9729 12.9891C99.474 12.9891 99.4051 15.5156 100.256 16.3666V16.9563L92.6661 16.9704Z" fill="white"></path> <path d="M102.977 7.02872C103.567 6.98812 104.061 7.42774 104.116 8.01743C104.075 8.60712 103.567 9.04673 102.977 9.00612C102.4 9.03437 101.893 8.59476 101.865 8.01743C101.893 7.42774 102.401 6.98812 102.977 7.02872ZM104.034 21.5962C104.034 22.5019 104.529 23.0792 105.915 23.0792V23.5736H100.148V23.0792C101.741 23.0792 102.304 22.5566 102.304 21.1848V15.9676C102.304 14.9525 102.181 14.8289 101.494 14.6912L100.272 14.4581V14.0467L103.649 12.8797H104.034V21.5962Z" fill="white"></path> <path d="M109.169 21.4726C109.169 22.8179 109.525 23.0792 110.982 23.0792V23.5736H105.572V23.0792C107.082 23.0792 107.426 22.4065 107.426 21.0877V15.9941C107.426 14.9789 107.274 14.7441 106.67 14.6753L105.668 14.5375V14.0979L108.784 12.9998H109.169V15.0866C110.5 14.0026 112.092 13.2875 113.796 13.0139C115.032 12.9856 116.09 13.879 116.254 15.0866C117.599 14.0291 119.177 13.3299 120.853 13.0139C122.721 13.0139 123.448 14.4422 123.448 16.9404C123.448 18.6018 123.448 20.3462 123.365 21.9245C123.365 22.4736 123.681 23.0916 124.751 23.0916H125.576V23.5859H119.727V23.0916H119.96C120.426 23.1604 120.908 23.0227 121.291 22.7349C121.716 21.5538 121.854 20.2914 121.702 19.0555V17.0234C121.702 15.0319 121.015 14.0714 119.753 14.0714C118.491 14.2233 117.295 14.7176 116.293 15.5139V21.5008C116.293 22.7914 116.595 23.1075 117.899 23.1075V23.6159H112.573V23.1216C114.042 23.1216 114.55 22.599 114.55 21.1301V16.3243C114.55 14.677 113.547 14.0856 112.627 14.0856C111.351 14.2498 110.141 14.7724 109.153 15.5827L109.169 21.4726Z" fill="white"></path> <path d="M3.11617 14.9929C3.11617 12.1928 4.10487 9.47387 5.91631 7.33227L4.20021 19.9506C3.48694 18.411 3.11617 16.709 3.11617 14.9929ZM9.89936 12.9326L13.923 26.017L16.6419 26.0576L20.7203 12.4506L21.709 24.8076C17.8637 27.4435 12.8249 27.5812 8.84357 25.1642L9.89936 12.9326ZM15.0071 3.11617C16.1882 3.11617 17.3552 3.29449 18.4816 3.63877L15.3513 14.2514L12.0975 3.47281C13.0438 3.23976 14.0184 3.11617 15.0071 3.11617ZM26.8838 14.9929C26.8838 16.6826 26.5272 18.3439 25.8263 19.8817L24.4262 7.77189C26.0328 9.84287 26.8979 12.3835 26.8838 14.9929ZM15.0071 30C23.2857 30 30 23.2715 30 14.9929C30 6.71434 23.2715 0 14.9929 0C6.71433 0 0 6.71434 0 14.9929C0 23.2857 6.72846 29.9859 15.0071 30Z" fill="white"></path> <defs> <clipPath id="clip0_1027_456"> <rect width="80.3571" height="30" fill="white" transform="translate(236)"></rect> </clipPath> </defs> </svg> 