<?xml version="1.0" encoding="UTF-8"?> <svg xmlns="http://www.w3.org/2000/svg" width="257" height="30" viewBox="0 0 257 30" fill="none"> <path fill-rule="evenodd" clip-rule="evenodd" d="M73.367 0.415561L68.5878 0V0.083162L59.7706 7.81173L59.1113 18.2824L66.3629 27.175L69.082 27.4242L100.725 30L102.949 2.82526L73.367 0.415561ZM63.3963 13.3796C63.3963 14.0446 62.8194 14.6263 62.1603 14.6263C61.4186 14.6263 60.842 14.0446 60.842 13.3796C60.842 12.6316 61.4189 12.05 62.1603 12.05C62.8196 12.05 63.3963 12.6316 63.3963 13.3796ZM70.5652 7.22985L70.4831 8.39337L70.8125 8.47653C71.3891 8.47653 72.0484 8.47654 72.0484 7.97781C72.1308 7.31302 71.3891 7.31302 70.8949 7.31302L70.5652 7.22985ZM71.7193 13.5459L66.6102 13.1304L67.2692 4.98623L71.6366 5.40179C73.6967 5.56786 75.7567 6.06659 75.5919 7.97781C75.5095 8.64286 75.0153 9.30766 74.0263 9.47373V9.55689C75.1799 9.97245 75.8392 10.6372 75.7567 11.6344C75.5919 13.2964 73.6145 13.712 71.7193 13.5459ZM70.7301 10.1385H70.4004L70.2358 11.4684L70.6476 11.5513C70.7123 11.5513 70.7792 11.5521 70.8476 11.5529H70.8476H70.8476C71.4767 11.5604 72.2213 11.5693 72.2957 10.9696C72.2957 10.333 71.4644 10.2298 70.815 10.1491L70.7301 10.1385ZM83.75 6.39898L76.7454 5.81735L76.0864 13.8783L83.2553 14.5431L83.4201 12.2992L80.0415 12.05L80.1241 11.2189L83.0905 11.4684L83.2553 9.39082L80.2889 9.14133L80.3714 8.31046L83.585 8.5597L83.75 6.39898ZM85.1508 11.8839L84.986 11.7176L83.585 13.9612C84.7385 14.46 86.2219 14.8755 87.5403 14.9584C89.8476 15.2082 92.1546 14.3768 92.3195 12.4656C92.4843 11.136 91.3308 10.3051 89.7649 9.88929L88.941 9.72322C88.9105 9.71552 88.8785 9.70782 88.8458 9.69992L88.8457 9.6999C88.5244 9.6225 88.1243 9.52609 88.1991 9.22449C88.1991 8.89209 88.6938 8.80893 89.0235 8.89209C89.8473 8.97526 90.5885 9.30766 91.1657 9.64005L92.4016 7.64566C91.4129 7.14694 90.3413 6.81454 89.1059 6.73138C86.8807 6.48215 84.491 7.39618 84.3262 9.30766C84.2438 10.5541 85.3975 11.3852 86.8807 11.7176L87.6227 11.8839L87.6767 11.8948C88.0763 11.9748 88.5254 12.0647 88.4466 12.3827C88.4466 12.7982 87.787 12.7982 87.4579 12.7982C86.5511 12.715 85.8099 12.2995 85.1508 11.8839ZM92.5667 7.06377L100.56 7.72856L100.312 10.388L98.2527 10.1385L97.7579 15.7066L93.9677 15.374L94.4622 9.80637L92.3194 9.7232L92.5667 7.06377ZM71.4717 17.9502L71.5542 16.787H71.8014C71.8724 16.7972 71.9446 16.8061 72.0167 16.8151C72.5305 16.8787 73.0373 16.9415 73.0373 17.4518C72.9547 18.0332 72.378 18.0332 71.8014 17.9502H71.4717ZM67.5164 22.687L72.7077 23.1025C74.5205 23.2689 76.5806 22.8533 76.663 21.1911C76.7454 20.1941 76.0861 19.4464 75.015 19.1138V19.0309C75.9213 18.8645 76.4155 18.1997 76.4982 17.452C76.663 15.624 74.6029 15.0421 72.6253 14.8757L68.1755 14.5434L67.5164 22.687ZM71.6366 19.6956C71.7157 19.7056 71.7996 19.7144 71.8858 19.7234C72.5178 19.7893 73.2747 19.8684 73.2024 20.5268C73.1198 21.1911 72.2135 21.1082 71.6366 21.0252H71.2245L71.3069 19.6956H71.6366ZM87.3754 16.1225L86.9634 20.9418C86.7985 23.2689 84.7387 24.1831 81.8545 23.9337C78.8879 23.7673 77.0751 22.5207 77.2399 20.111L77.652 15.2908L81.4424 15.6235L81.1128 20.1939C81.0304 20.7758 81.0304 21.3571 82.0193 21.4406C83.0905 21.5235 83.1729 20.9416 83.1729 20.3602L83.5849 15.7893L87.3754 16.1222L87.3754 16.1222L91.6604 16.4544L92.6491 18.698H92.8139C92.8963 18.4488 93.0612 18.1995 93.226 17.9503L94.0499 16.7036L98.3343 17.0363L94.379 21.3574L94.0499 24.848L90.3413 24.5158L90.6709 21.0253L87.3754 16.1225Z" fill="white"></path> <g clip-path="url(#clip0_1021_619)"> <path fill-rule="evenodd" clip-rule="evenodd" d="M201.451 19.0732C201.451 19.3082 201.412 19.5823 201.373 19.7781C201.022 20.7964 200.087 21.4622 198.996 21.4622C198.022 21.4622 197.282 20.9139 197.282 19.739C197.282 17.9374 199.23 17.4674 201.49 17.4674V19.0732H201.451ZM204.958 15.94C204.958 13.0027 203.711 10.3787 199.464 10.3787C197.282 10.3787 195.528 11.0053 194.593 11.5536L195.294 13.9426C196.385 13.316 197.593 12.9635 198.84 12.9244C201.022 12.9244 201.373 14.1385 201.373 14.9217V15.1176C196.658 15.1176 193.697 16.7625 193.697 20.0915C193.697 22.128 195.217 24.0471 197.866 24.0471C199.464 24.0471 200.828 23.4204 201.646 22.363H201.724C201.724 22.363 202.269 24.6345 205.231 23.7729C205.075 22.833 204.997 21.8147 204.997 20.6398V15.94H204.958ZM132.949 6.34473L136.534 21.0706C137.119 23.4596 138.132 24.3604 141.093 23.7729L143.002 15.94C143.47 13.9818 143.821 12.611 144.132 10.6137H144.171C144.405 12.611 144.717 13.9818 145.107 15.94L146.276 21.3839C146.704 23.2638 147.795 24.4387 150.718 23.7729L155.277 6.38389H151.575L150.016 13.9035C149.588 16.0967 149.198 17.8199 148.925 19.8173C148.652 17.8199 148.302 16.175 147.873 14.0601L146.276 6.38389H142.418L140.664 13.8643C140.197 16.1358 139.729 17.9766 139.418 19.8956H139.379C139.067 18.0941 138.677 15.7834 138.249 13.5902L136.846 6.34473H132.949ZM162.057 19.0732C162.057 19.3082 162.057 19.5823 161.979 19.7781C161.628 20.7964 160.693 21.4622 159.602 21.4622C158.628 21.4622 157.887 20.9139 157.887 19.739C157.887 17.9374 159.836 17.4674 162.096 17.4674V19.0732H162.057ZM165.603 15.94C165.603 13.0027 164.356 10.3787 160.108 10.3787C157.926 10.3787 156.173 11.0053 155.238 11.5536L155.939 13.9426C157.03 13.316 158.238 12.9635 159.485 12.9244C161.667 12.9244 162.018 14.1385 162.018 14.9217V15.1176C157.303 15.1176 154.341 16.7625 154.341 20.0915C154.341 22.128 155.861 24.0471 158.511 24.0471C160.108 24.0471 161.472 23.4204 162.29 22.363H162.368C162.368 22.363 162.914 24.6345 165.875 23.7729C165.719 22.833 165.641 21.8147 165.641 20.6398V15.94H165.603ZM171.019 20.0523V6.34473H167.512V23.7338H171.019V20.0523ZM215.751 6.38389V19.1907C215.751 20.9531 216.063 22.2063 216.804 22.9505C217.427 23.6163 218.44 24.0471 219.648 24.0471C220.7 24.0471 221.713 23.8513 222.181 23.6554L222.142 20.8748C221.791 20.9922 221.363 21.0314 220.817 21.0314C219.609 21.0314 219.219 20.2873 219.219 18.6815V13.8251H222.298V10.4962H219.219V6.34473L215.751 6.38389ZM206.672 10.692V23.7729H210.296V17.0758C210.296 16.7233 210.335 16.41 210.374 16.0967C210.647 14.6868 211.699 13.786 213.258 13.786C213.686 13.786 213.959 13.8251 214.31 13.8643V10.4178C214.037 10.3787 213.764 10.3395 213.53 10.3395C212.167 10.3395 210.647 11.2011 209.985 13.1202H209.907V10.6528L206.672 10.692ZM173.084 10.692V23.7729H176.591V16.0967C176.591 15.7442 176.63 15.3526 176.747 15.0392C177.019 14.256 177.76 13.3552 178.89 13.3552C180.332 13.3552 180.994 14.5693 180.994 16.2925V23.7338H184.54V15.9792C184.54 15.6267 184.579 15.1959 184.696 14.9217C184.969 13.9818 185.865 13.316 186.839 13.316C188.281 13.316 188.982 14.4909 188.982 16.5667V23.7338H192.528V16.0575C192.528 12.0236 190.463 10.3787 188.164 10.3787C187.112 10.3787 186.332 10.6528 185.592 11.0836C184.969 11.4753 184.423 12.0236 183.955 12.7285H183.916C183.332 11.2795 181.89 10.3395 180.332 10.3787C178.773 10.3003 177.292 11.0836 176.552 12.4544H176.513V10.692H173.084Z" fill="white"></path> <path fill-rule="evenodd" clip-rule="evenodd" d="M241.274 10.1044C241.975 10.1044 242.56 9.71279 242.638 9.28199L243.3 1.40992C243.3 0.626632 242.404 0 241.274 0C240.144 0 239.248 0.626632 239.248 1.40992L239.949 9.28199C239.988 9.75196 240.573 10.1044 241.274 10.1044ZM237.027 12.5718C237.377 11.9452 237.338 11.2794 236.988 10.9661L230.558 6.46214C229.896 6.0705 228.883 6.54047 228.337 7.51958C227.753 8.4987 227.87 9.63447 228.532 9.98695L235.663 13.3159C236.092 13.4726 236.715 13.1593 237.027 12.5718ZM245.482 12.5326C245.833 13.1593 246.418 13.4726 246.885 13.2768L253.977 9.94778C254.639 9.55614 254.756 8.45953 254.172 7.48042C253.587 6.50131 252.613 6.03133 251.951 6.42298L245.521 10.9661C245.171 11.2794 245.132 11.9452 245.482 12.5326ZM241.274 19.8956C241.975 19.8956 242.56 20.2872 242.638 20.718L243.3 28.5901C243.3 29.3734 242.404 30 241.274 30C240.144 30 239.248 29.3734 239.248 28.5901L239.949 20.718C239.988 20.248 240.573 19.8956 241.274 19.8956ZM245.482 17.4674C245.833 16.8407 246.418 16.5274 246.885 16.6841L253.977 20.0131C254.639 20.4047 254.756 21.5013 254.172 22.4804C253.587 23.4595 252.613 23.9295 251.951 23.5379L245.521 19.0339C245.171 18.7598 245.132 18.0548 245.482 17.4674ZM237.027 17.4674C237.377 18.0548 237.338 18.7598 236.988 19.0731L230.558 23.577C229.896 23.9687 228.883 23.4987 228.337 22.5196C227.753 21.5405 227.87 20.4439 228.532 20.0522L235.663 16.7232C236.092 16.5274 236.715 16.8407 237.027 17.4674ZM255.497 22.8721H255.574C255.652 22.8721 255.73 22.8329 255.73 22.7937C255.73 22.7154 255.691 22.7154 255.613 22.7154H255.536V22.8721H255.497ZM255.497 23.2245H255.341V22.5979H255.574C255.691 22.5979 255.73 22.5979 255.808 22.6371C255.847 22.6762 255.886 22.7154 255.886 22.7546C255.886 22.8329 255.847 22.8721 255.769 22.9112C255.847 22.9504 255.886 22.9896 255.886 23.0679C255.886 23.1854 255.925 23.1854 255.925 23.2245H255.769C255.73 23.1854 255.73 23.1462 255.73 23.0679C255.73 22.9896 255.691 22.9896 255.613 22.9896H255.536L255.497 23.2245ZM255.574 22.4021C255.302 22.4021 255.107 22.6371 255.107 22.9112C255.107 23.1854 255.302 23.4204 255.574 23.4204C255.847 23.4204 256.042 23.1854 256.042 22.9112C256.081 22.6371 255.847 22.4021 255.574 22.4021ZM255.574 22.2846C255.925 22.2846 256.198 22.5587 256.198 22.9112C256.198 23.2637 255.925 23.5379 255.574 23.5379C255.224 23.5379 254.912 23.2637 254.912 22.9112C254.951 22.5587 255.224 22.2846 255.574 22.2846Z" fill="white"></path> </g> <path d="M25.5346 24.6957C13.1523 30.5887 5.46771 25.6582 0.548563 22.6636C0.244168 22.4748 -0.273197 22.7077 0.175688 23.2233C1.8145 25.2104 7.18524 29.9999 14.1956 29.9999C21.2108 29.9999 25.3842 26.1721 25.9063 25.5043C26.4248 24.8422 26.0585 24.477 25.5345 24.6957H25.5346ZM29.0121 22.7752C28.6796 22.3422 26.9902 22.2615 25.927 22.3921C24.8621 22.519 23.2638 23.1698 23.4028 23.5605C23.4741 23.7069 23.6196 23.6412 24.3511 23.5755C25.0846 23.5023 27.1395 23.2429 27.5677 23.8027C27.9979 24.3663 26.9123 27.0511 26.714 27.4841C26.5225 27.9171 26.7872 28.0288 27.147 27.7404C27.5019 27.4521 28.1444 26.7055 28.5755 25.649C29.0036 24.5868 29.2649 23.1049 29.0121 22.7752Z" fill="#FF9900"></path> <path fill-rule="evenodd" clip-rule="evenodd" d="M17.2092 12.6714C17.2092 14.2176 17.2483 15.5071 16.4667 16.8802C15.8359 17.9967 14.8368 18.6833 13.7204 18.6833C12.1964 18.6833 11.3089 17.5222 11.3089 15.8085C11.3089 12.4257 14.3399 11.8117 17.2092 11.8117V12.6714ZM21.2115 22.3452C20.9491 22.5796 20.5695 22.5964 20.2737 22.44C18.9564 21.346 18.7219 20.838 17.9962 19.7941C15.8192 22.0158 14.2786 22.6801 11.4541 22.6801C8.11595 22.6801 5.51465 20.6202 5.51465 16.4951C5.51465 13.2743 7.26195 11.0805 9.74582 10.0088C11.9006 9.05971 14.9094 8.89228 17.2092 8.63001V8.11641C17.2092 7.17298 17.2817 6.0566 16.7291 5.24166C16.2434 4.51038 15.3168 4.20893 14.5018 4.20893C12.9891 4.20893 11.6382 4.9848 11.3089 6.59243C11.2418 6.94978 10.9795 7.30147 10.6223 7.31818L6.77059 6.90518C6.44689 6.83247 6.08967 6.5702 6.17897 6.0733C7.06651 1.40678 11.2809 0 15.0543 0C16.9858 0 19.5088 0.5136 21.0328 1.97615C22.9642 3.77911 22.78 6.18497 22.78 8.80297V14.9879C22.78 16.8468 23.5503 17.6617 24.2759 18.6666C24.5327 19.0238 24.5886 19.4537 24.2648 19.7215C23.4553 20.3969 22.0151 21.653 21.2226 22.3564L21.2114 22.3452" fill="white"></path> <path d="M25.5346 24.6957C13.1523 30.5887 5.46771 25.6582 0.548563 22.6636C0.244168 22.4748 -0.273197 22.7077 0.175688 23.2233C1.8145 25.2104 7.18524 29.9999 14.1956 29.9999C21.2108 29.9999 25.3842 26.1721 25.9063 25.5043C26.4248 24.8422 26.0585 24.477 25.5345 24.6957H25.5346ZM29.0121 22.7752C28.6796 22.3422 26.9902 22.2615 25.927 22.3921C24.8621 22.519 23.2638 23.1698 23.4028 23.5605C23.4741 23.7069 23.6196 23.6412 24.3511 23.5755C25.0846 23.5023 27.1395 23.2429 27.5677 23.8027C27.9979 24.3663 26.9123 27.0511 26.714 27.4841C26.5225 27.9171 26.7872 28.0288 27.147 27.7404C27.5019 27.4521 28.1444 26.7055 28.5755 25.649C29.0036 24.5868 29.2649 23.1049 29.0121 22.7752Z" fill="white"></path> <path fill-rule="evenodd" clip-rule="evenodd" d="M17.2092 12.6714C17.2092 14.2176 17.2483 15.5071 16.4667 16.8802C15.8359 17.9967 14.8368 18.6833 13.7204 18.6833C12.1964 18.6833 11.3089 17.5222 11.3089 15.8085C11.3089 12.4257 14.3399 11.8117 17.2092 11.8117V12.6714ZM21.2115 22.3452C20.9491 22.5796 20.5695 22.5964 20.2737 22.44C18.9564 21.346 18.7219 20.838 17.9962 19.7941C15.8192 22.0158 14.2786 22.6801 11.4541 22.6801C8.11595 22.6801 5.51465 20.6202 5.51465 16.4951C5.51465 13.2743 7.26195 11.0805 9.74582 10.0088C11.9006 9.05971 14.9094 8.89228 17.2092 8.63001V8.11641C17.2092 7.17298 17.2817 6.0566 16.7291 5.24166C16.2434 4.51038 15.3168 4.20893 14.5018 4.20893C12.9891 4.20893 11.6382 4.9848 11.3089 6.59243C11.2418 6.94978 10.9795 7.30147 10.6223 7.31818L6.77059 6.90518C6.44689 6.83247 6.08967 6.5702 6.17897 6.0733C7.06651 1.40678 11.2809 0 15.0543 0C16.9858 0 19.5088 0.5136 21.0328 1.97615C22.9642 3.77911 22.78 6.18497 22.78 8.80297V14.9879C22.78 16.8468 23.5503 17.6617 24.2759 18.6666C24.5327 19.0238 24.5886 19.4537 24.2648 19.7215C23.4553 20.3969 22.0151 21.653 21.2226 22.3564L21.2114 22.3452" fill="white"></path> <defs> <clipPath id="clip0_1021_619"> <rect width="123.288" height="30" fill="white" transform="translate(132.949)"></rect> </clipPath> </defs> </svg> 