<?xml version="1.0" encoding="UTF-8"?> <svg xmlns="http://www.w3.org/2000/svg" width="449" height="38" viewBox="0 0 449 38" fill="none"> <g clip-path="url(#clip0_1021_1403)"> <path d="M318.889 0H334.249V5.13208H318.889V0Z" fill="white"></path> <path d="M318.889 10.264H324.009V24.1885H318.889V10.264ZM329.129 10.264H334.249V24.1885H329.129V10.264ZM353.6 13.6225V24.1885H349.722V13.6225H345.844V10.264H357.477V13.6225H353.6ZM369.976 24.1885V18.6791H365.647V24.1508H361.732V10.264H365.647V15.3206H369.976V10.264H373.892V24.1885H369.976ZM384.508 24.415C380.744 24.415 378.108 21.8867 378.108 17.2451C378.108 12.6036 380.781 10.0753 384.546 10.0753C388.311 10.0753 390.946 12.6036 390.946 17.2451C390.946 21.8867 388.311 24.415 384.508 24.415ZM384.508 13.3961C382.965 13.3961 382.099 14.6791 382.099 17.2074C382.099 19.7357 383.003 21.0565 384.546 21.0565C386.09 21.0565 386.956 19.7734 386.956 17.2451C386.956 14.7168 386.052 13.3961 384.508 13.3961ZM405.516 24.1885V20.8678C405.516 19.5093 405.553 18.2263 405.591 17.1697C405.177 18.1885 404.462 19.8112 403.972 20.7923L402.128 24.6414L400.283 20.7923C399.793 19.8112 399.078 18.1885 398.664 17.1697C398.739 18.2263 398.739 19.5093 398.739 20.8678V24.1885H395.125V10.264H398.664L400.358 13.9999C401.036 15.3584 401.6 16.7546 402.09 18.1885C402.579 16.7546 403.182 15.3584 403.822 13.9999L405.553 10.264H409.055V24.1885H405.516ZM422.909 24.1885L422.156 21.7357H417.977L417.224 24.1885H413.083L418.128 10.264H422.005L427.05 24.1885H422.909ZM420.951 17.7734C420.462 15.9999 420.236 15.2074 420.048 14.3017C419.86 15.2451 419.671 15.9999 419.144 17.7734L418.881 18.6791H421.177L420.951 17.7734ZM436.349 24.415C434.279 24.415 432.246 23.8112 430.476 22.7168L432.359 19.698C433.375 20.3772 435.145 21.0942 436.425 21.0942C437.78 21.0942 438.232 20.8678 438.232 20.1885C438.232 19.6602 437.742 19.3584 435.86 18.9055C432.509 18.1131 430.89 17.2074 430.89 14.415C430.89 11.7734 432.999 10.0376 436.349 10.0376C438.721 10.0376 440.415 10.6036 441.883 11.6602L440.001 14.6791C438.872 13.8489 437.516 13.3961 436.123 13.3584C434.956 13.3584 434.693 13.7357 434.693 14.2263C434.693 14.7168 435.182 14.981 436.989 15.3961C440.49 16.2263 442.034 17.3206 442.034 19.9244C442.072 23.0942 439.7 24.415 436.349 24.415ZM445.686 10.4527V12.1508H445.385V10.4527H444.782V10.1508H446.251V10.4527H445.686ZM448.171 12.1508V11.0942V10.7546C448.133 10.7923 448.095 10.9433 448.058 11.0565L447.568 12.1885L447.079 11.0565C447.041 10.9433 446.966 10.7923 446.966 10.7546V12.1508H446.665V10.1508H446.966L447.418 11.2074C447.455 11.3206 447.531 11.4716 447.568 11.547C447.606 11.4716 447.644 11.3206 447.719 11.2074L448.171 10.1508H448.509V12.1508H448.171Z" fill="white"></path> <path d="M372.574 34.9434L370.541 37.8113H372.047L373.402 36.0377L372.574 34.9434Z" fill="white"></path> <path d="M377.732 36.5661L375.36 33.434L377.694 30.2642L376.791 29.0566L374.494 32.2642L372.085 29.0566H370.541L376.791 37.8114L377.732 36.5661Z" fill="white"></path> <path d="M374.984 29.0566L373.666 30.7925L374.494 31.8868L376.527 29.0566H374.984Z" fill="white"></path> <path d="M375.021 37.8114H376.565L370.278 29.0566L369.374 30.2642L371.708 33.434L369.374 36.5283L370.278 37.8114L372.574 34.5661L375.021 37.8114Z" fill="white"></path> <path d="M379.84 36.1129C379.125 36.1129 378.447 35.8487 377.958 35.3204C377.732 35.0563 377.544 34.7921 377.431 34.4525C377.318 34.1129 377.242 33.7733 377.242 33.4336C377.242 33.094 377.318 32.7167 377.431 32.4148C377.544 32.1129 377.732 31.811 377.958 31.5468C378.184 31.2827 378.485 31.094 378.786 30.9808C379.125 30.8299 379.464 30.7544 379.84 30.7544C380.555 30.7544 381.233 31.0185 381.722 31.5468C381.948 31.811 382.137 32.0752 382.25 32.4148C382.363 32.7544 382.438 33.094 382.438 33.4336C382.438 33.7733 382.363 34.1129 382.25 34.4525C381.986 35.094 381.497 35.6223 380.894 35.8865C380.593 36.0374 380.217 36.1129 379.84 36.1129ZM378.146 33.4336C378.146 33.6978 378.184 33.9619 378.297 34.1884C378.372 34.4148 378.485 34.6035 378.673 34.7921C378.824 34.9431 379.012 35.094 379.2 35.2072C379.614 35.3959 380.104 35.3959 380.555 35.2072C380.781 35.094 380.932 34.9808 381.12 34.7921C381.271 34.6035 381.421 34.4148 381.497 34.1884C381.572 33.9619 381.647 33.6978 381.647 33.4336C381.647 33.1695 381.61 32.9431 381.497 32.6789C381.421 32.4525 381.271 32.2638 381.12 32.0751C380.97 31.8865 380.781 31.7733 380.555 31.6601C380.33 31.5468 380.104 31.5091 379.878 31.5091C379.652 31.5091 379.426 31.5468 379.2 31.6601C379.012 31.7733 378.824 31.8865 378.673 32.0751C378.522 32.2638 378.41 32.4525 378.297 32.6789C378.184 32.9053 378.146 33.1695 378.146 33.4336Z" fill="white"></path> <path d="M390.795 35.9997H389.93V33.094C389.93 32.5657 389.854 32.1506 389.666 31.8865C389.478 31.6223 389.214 31.4714 388.875 31.5091C388.537 31.5091 388.198 31.6601 387.934 31.8865C387.633 32.1506 387.445 32.4902 387.332 32.8676V35.9997H386.466V33.094C386.466 32.528 386.391 32.1506 386.202 31.8865C386.014 31.6223 385.751 31.5091 385.449 31.5091C385.111 31.5091 384.772 31.6601 384.508 31.8865C384.207 32.1506 383.981 32.4902 383.906 32.8676V35.9997H383.04V30.8299H383.831V31.9619C384.019 31.5846 384.32 31.2827 384.659 31.094C384.998 30.8676 385.374 30.7921 385.788 30.7921C386.165 30.7544 386.541 30.9053 386.805 31.1318C387.068 31.3582 387.219 31.6978 387.257 32.0374C387.708 31.2072 388.386 30.7544 389.214 30.7544C389.478 30.7544 389.741 30.7921 389.967 30.9053C390.155 31.0185 390.344 31.1695 390.457 31.3582C390.57 31.5846 390.683 31.811 390.72 32.0374C390.758 32.3393 390.795 32.6035 390.795 32.9053V35.9997Z" fill="white"></path> <path d="M394.033 36.1129C393.657 36.1129 393.318 36.0374 392.979 35.8865C392.678 35.7355 392.377 35.5468 392.151 35.3204C391.925 35.0563 391.737 34.7921 391.624 34.4525C391.511 34.1129 391.436 33.7733 391.436 33.4336C391.436 33.094 391.511 32.7167 391.624 32.4148C392 31.3959 393.017 30.7544 394.071 30.7544C395.125 30.7544 396.104 31.3959 396.48 32.4148C396.593 32.7167 396.669 33.0563 396.669 33.3959V33.5846V33.7355H392.301C392.301 33.9619 392.377 34.2261 392.49 34.4525C392.565 34.6412 392.716 34.8299 392.866 34.9808C393.017 35.1318 393.205 35.245 393.393 35.3204C393.581 35.3959 393.807 35.4336 394.033 35.4336C394.184 35.4336 394.334 35.3959 394.485 35.3582C394.636 35.3204 394.786 35.245 394.899 35.1695C395.012 35.094 395.163 35.0185 395.238 34.9053C395.351 34.7921 395.426 34.6789 395.464 34.5657L396.217 34.7921C396.141 34.9808 396.029 35.1695 395.878 35.3204C395.727 35.4714 395.539 35.6223 395.351 35.7355C395.163 35.8487 394.937 35.9619 394.711 35.9997C394.523 36.0752 394.259 36.1129 394.033 36.1129ZM395.803 33.0563C395.803 32.8299 395.727 32.6035 395.614 32.377C395.501 32.1884 395.389 31.9997 395.238 31.8487C394.749 31.3959 394.033 31.245 393.393 31.5091C393.205 31.5846 393.017 31.6978 392.866 31.8487C392.716 31.9997 392.565 32.1884 392.49 32.377C392.377 32.6035 392.339 32.8299 392.301 33.0563H395.803Z" fill="white"></path> <path d="M399.944 35.7357C399.906 35.7735 399.831 35.8112 399.756 35.849C399.68 35.8867 399.567 35.9244 399.454 35.9622C399.341 35.9999 399.229 36.0376 399.116 36.0376C399.003 36.0754 398.852 36.0754 398.701 36.0754C398.4 36.0754 398.137 35.9999 397.873 35.8112C397.647 35.6225 397.534 35.3584 397.534 35.0188V31.5093H396.819V30.8301H397.534V29.0942H398.4V30.8301H399.567V31.5093H398.4V34.7169C398.4 34.8678 398.476 35.0188 398.589 35.132C398.701 35.2074 398.852 35.2452 398.965 35.2452C399.116 35.2452 399.266 35.2074 399.417 35.1697C399.53 35.132 399.605 35.0942 399.718 35.0188L399.944 35.7357Z" fill="white"></path> <path d="M403.219 31.5849C402.805 31.5849 402.429 31.6981 402.052 31.9246C401.713 32.1132 401.487 32.4529 401.337 32.7925V36H400.471V30.8302H401.262V32.0378C401.412 31.6981 401.676 31.3963 401.977 31.1698C402.24 30.9434 402.579 30.8302 402.88 30.7925H403.031H403.144L403.219 31.5849Z" fill="white"></path> <path d="M408.829 30.8301L406.457 36.9433C406.344 37.1697 406.193 37.3961 406.005 37.5471C405.742 37.7357 405.44 37.8112 405.139 37.8112C405.064 37.8112 405.026 37.8112 404.951 37.8112C404.876 37.8112 404.8 37.7735 404.725 37.7735V37.0188C404.8 37.0188 404.876 37.0565 404.989 37.0565H405.177C405.252 37.0565 405.365 37.0188 405.44 36.981C405.516 36.9433 405.591 36.8678 405.629 36.7546C405.704 36.6414 405.817 36.3018 405.93 35.9999L403.746 30.8301H404.65L406.419 35.2452L408.038 30.8301H408.829Z" fill="white"></path> <path d="M407.436 36.7548C407.172 36.7548 406.984 36.5661 406.984 36.302C406.984 36.0378 407.172 35.8491 407.436 35.8491C407.699 35.8491 407.887 36.0378 407.887 36.302C407.887 36.5661 407.699 36.7548 407.436 36.7548ZM407.436 35.8869C407.247 35.8869 407.059 36.0378 407.059 36.2642C407.059 36.5284 407.21 36.6416 407.436 36.6416C407.662 36.6416 407.812 36.4906 407.812 36.2642C407.812 36.0378 407.662 35.8869 407.436 35.8869ZM407.586 36.5284L407.436 36.302H407.398V36.4906H407.323V36.0001H407.473C407.586 36.0001 407.662 36.0378 407.662 36.151C407.662 36.2265 407.624 36.2642 407.549 36.302L407.699 36.4906L407.586 36.5284ZM407.436 36.1133H407.36V36.2642H407.436C407.473 36.2642 407.511 36.2265 407.511 36.1887C407.549 36.151 407.511 36.1133 407.436 36.1133Z" fill="white"></path> <path d="M413.234 31.0567C412.97 31.0567 412.744 31.0944 412.556 31.2076C412.368 31.3208 412.179 31.434 412.066 31.585C411.916 31.7359 411.841 31.9623 411.765 32.1888C411.69 32.4152 411.652 32.6793 411.652 32.9812C411.652 33.3586 411.728 33.7359 411.841 34.0001C411.954 34.2642 412.142 34.5284 412.368 34.6793C412.594 34.8303 412.895 34.9057 413.271 34.9057C413.497 34.9057 413.685 34.868 413.911 34.8303C414.099 34.7925 414.325 34.7548 414.514 34.6793V35.3208C414.325 35.3963 414.137 35.434 413.911 35.4718C413.723 35.5095 413.459 35.5095 413.196 35.5095C412.669 35.5095 412.255 35.3963 411.916 35.2076C411.577 34.9812 411.314 34.7171 411.163 34.302C411.012 33.9246 410.899 33.4718 410.899 32.9435C410.899 32.5661 410.937 32.2265 411.05 31.9246C411.163 31.6227 411.314 31.3586 411.502 31.0944C411.69 30.868 411.954 30.6793 412.255 30.5661C412.556 30.4529 412.895 30.3774 413.271 30.3774C413.535 30.3774 413.761 30.4152 413.987 30.4529C414.212 30.4906 414.438 30.5661 414.664 30.6793L414.401 31.2831C414.25 31.2076 414.062 31.1322 413.874 31.0944C413.648 31.0567 413.422 31.0567 413.234 31.0567Z" fill="white"></path> <path d="M418.73 33.5848C418.73 33.8867 418.692 34.1886 418.617 34.415C418.542 34.6414 418.429 34.8678 418.278 35.0188C418.128 35.1697 417.939 35.3207 417.714 35.3961C417.488 35.4716 417.262 35.5093 416.961 35.5093C416.697 35.5093 416.471 35.4716 416.245 35.3961C416.019 35.3207 415.831 35.1697 415.681 35.0188C415.53 34.8678 415.417 34.6414 415.304 34.415C415.229 34.1886 415.191 33.8867 415.191 33.5848C415.191 33.1697 415.266 32.8301 415.417 32.5282C415.568 32.2263 415.756 31.9999 416.019 31.849C416.283 31.698 416.584 31.6226 416.961 31.6226C417.299 31.6226 417.601 31.698 417.864 31.849C418.128 31.9999 418.316 32.2263 418.467 32.5282C418.617 32.8301 418.73 33.1697 418.73 33.5848ZM415.944 33.5848C415.944 33.8867 415.982 34.1131 416.057 34.3018C416.132 34.4905 416.245 34.6792 416.396 34.7546C416.546 34.8678 416.735 34.9056 416.961 34.9056C417.186 34.9056 417.375 34.8678 417.525 34.7546C417.676 34.6414 417.789 34.4905 417.864 34.3018C417.939 34.1131 417.977 33.849 417.977 33.5848C417.977 33.3207 417.939 33.0565 417.864 32.8678C417.789 32.6792 417.676 32.5282 417.525 32.415C417.375 32.3018 417.186 32.2641 416.961 32.2641C416.622 32.2641 416.358 32.3773 416.208 32.6037C416.019 32.8301 415.944 33.132 415.944 33.5848Z" fill="white"></path> <path d="M423.85 31.6226C424.264 31.6226 424.566 31.7358 424.791 31.9622C425.017 32.1886 425.13 32.5282 425.13 33.0188V35.4716H424.415V33.132C424.415 32.8301 424.34 32.6037 424.227 32.4905C424.114 32.3395 423.926 32.2641 423.7 32.2641C423.361 32.2641 423.135 32.3773 422.984 32.566C422.834 32.7546 422.758 33.0565 422.758 33.4716V35.4716H422.043V33.132C422.043 32.9433 422.005 32.7924 421.968 32.6414C421.93 32.4905 421.855 32.415 421.742 32.3395C421.629 32.2641 421.516 32.2263 421.365 32.2263C421.14 32.2263 420.951 32.2641 420.801 32.3773C420.65 32.4905 420.575 32.6414 420.5 32.8301C420.424 33.0188 420.424 33.2829 420.424 33.5471V35.4716H419.709V31.698H420.274L420.387 32.2263H420.424C420.5 32.1131 420.613 31.9999 420.725 31.8867C420.838 31.8112 420.951 31.7358 421.102 31.698C421.253 31.6603 421.403 31.6226 421.554 31.6226C421.817 31.6226 422.081 31.6603 422.269 31.7735C422.457 31.8867 422.608 32.0377 422.683 32.2263H422.721C422.834 31.9999 423.022 31.849 423.21 31.7735C423.398 31.698 423.624 31.6226 423.85 31.6226Z" fill="white"></path> <path d="M428.104 31.6226C428.556 31.6226 428.932 31.7735 429.196 32.1131C429.46 32.4527 429.61 32.9056 429.61 33.5848C429.61 33.9999 429.535 34.3773 429.422 34.6792C429.309 34.981 429.121 35.1697 428.895 35.3207C428.669 35.4716 428.405 35.5471 428.104 35.5471C427.916 35.5471 427.728 35.5094 427.615 35.4716C427.464 35.4339 427.351 35.3584 427.238 35.2829C427.125 35.2075 427.05 35.0943 426.975 35.0188H426.937C426.937 35.0943 426.975 35.2075 426.975 35.3207C426.975 35.4339 426.975 35.5471 426.975 35.6226V37.1697H426.26V31.698H426.862L426.975 32.2263H427.012C427.088 32.1131 427.163 31.9999 427.276 31.9244C427.389 31.849 427.502 31.7735 427.652 31.698C427.765 31.6603 427.916 31.6226 428.104 31.6226ZM427.954 32.2263C427.728 32.2263 427.54 32.2641 427.389 32.3773C427.238 32.4905 427.163 32.6037 427.088 32.7924C427.012 32.981 426.975 33.2075 426.975 33.4716V33.5848C426.975 33.8867 427.012 34.1131 427.05 34.3395C427.125 34.5282 427.201 34.6792 427.351 34.7924C427.502 34.9056 427.69 34.9433 427.916 34.9433C428.142 34.9433 428.292 34.9056 428.443 34.7924C428.594 34.6792 428.669 34.5282 428.744 34.3018C428.82 34.0754 428.857 33.849 428.857 33.5848C428.857 33.1697 428.782 32.8301 428.631 32.6037C428.481 32.3395 428.255 32.2263 427.954 32.2263Z" fill="white"></path> <path d="M432.02 31.6226C432.471 31.6226 432.848 31.7358 433.074 31.9244C433.3 32.1509 433.413 32.4527 433.413 32.9056V35.4716H432.886L432.735 34.9433H432.697C432.584 35.0943 432.471 35.2075 432.358 35.2829C432.246 35.3584 432.095 35.4339 431.982 35.4716C431.831 35.5093 431.643 35.5471 431.455 35.5471C431.229 35.5471 431.041 35.5094 430.853 35.4339C430.664 35.3584 430.551 35.2452 430.438 35.0565C430.325 34.9056 430.288 34.6792 430.288 34.415C430.288 34.0377 430.438 33.7358 430.74 33.5471C431.041 33.3584 431.455 33.2452 432.057 33.2075L432.697 33.1697V32.9433C432.697 32.6792 432.622 32.4527 432.509 32.3395C432.396 32.2263 432.208 32.1509 431.982 32.1509C431.794 32.1509 431.606 32.1886 431.417 32.2263C431.229 32.2641 431.078 32.3395 430.89 32.415L430.664 31.8867C430.853 31.8112 431.041 31.698 431.267 31.6603C431.53 31.6603 431.756 31.6226 432.02 31.6226ZM432.697 33.6603L432.17 33.698C431.756 33.698 431.455 33.7735 431.267 33.9244C431.078 34.0377 431.003 34.2263 431.003 34.4527C431.003 34.6414 431.078 34.7924 431.191 34.8678C431.304 34.9433 431.455 35.0188 431.643 35.0188C431.944 35.0188 432.17 34.9433 432.358 34.7546C432.547 34.6037 432.66 34.3395 432.66 33.9999V33.6603H432.697Z" fill="white"></path> <path d="M436.462 31.6226C436.876 31.6226 437.215 31.7358 437.441 31.9622C437.667 32.1886 437.78 32.5282 437.78 33.0188V35.4716H437.064V33.132C437.064 32.8301 436.989 32.6037 436.876 32.4527C436.763 32.3018 436.537 32.2263 436.274 32.2263C435.897 32.2263 435.634 32.3395 435.483 32.566C435.333 32.7924 435.257 33.132 435.257 33.5471V35.4339H434.542V31.698H435.107L435.22 32.2263H435.257C435.333 32.1131 435.446 31.9999 435.558 31.8867C435.671 31.8112 435.822 31.7358 435.973 31.698C436.123 31.6603 436.274 31.6226 436.462 31.6226Z" fill="white"></path> <path d="M438.344 31.6982H439.135L439.926 33.8492C439.963 33.9624 440.001 34.0756 440.039 34.1511C440.076 34.2643 440.114 34.3398 440.114 34.453C440.152 34.5662 440.152 34.6416 440.189 34.7548H440.227C440.265 34.6416 440.302 34.4907 440.34 34.3398C440.377 34.1888 440.453 34.0379 440.49 33.8492L441.243 31.6982H442.034L440.415 36.0001C440.34 36.2265 440.227 36.453 440.076 36.6039C439.963 36.7926 439.775 36.9058 439.625 36.9813C439.436 37.0567 439.248 37.1322 439.022 37.1322C438.909 37.1322 438.796 37.1322 438.721 37.1322C438.646 37.1322 438.57 37.0945 438.495 37.0945V36.5284C438.533 36.5284 438.608 36.5662 438.683 36.5662H438.909C439.06 36.5662 439.173 36.5284 439.286 36.4907C439.399 36.453 439.474 36.3398 439.549 36.2643C439.625 36.1511 439.7 36.0379 439.737 35.9247L439.888 35.5096L438.344 31.6982Z" fill="white"></path> <path d="M365.421 35.3582L364.894 33.9243H362.974L362.447 35.3582H361.656L363.539 30.3394H364.329L366.212 35.3582H365.421ZM364.706 33.2828L364.216 31.8488C364.216 31.8111 364.179 31.7356 364.141 31.6224C364.103 31.5092 364.066 31.396 364.028 31.3205C363.99 31.2073 363.953 31.1318 363.953 31.0563C363.915 31.1318 363.915 31.245 363.877 31.3582C363.84 31.4714 363.802 31.5469 363.802 31.6601C363.765 31.7733 363.765 31.8111 363.727 31.8865L363.2 33.3205H364.706V33.2828Z" fill="white"></path> </g> <g clip-path="url(#clip1_1021_1403)"> <path d="M4.32392 27.4232C2.90913 26.2328 1.78435 24.7355 1.03509 23.0452C0.28583 21.3548 -0.0681819 19.5158 -3.64557e-05 17.668C0.00427636 15.9595 0.366671 14.2708 1.06377 12.7109C1.76087 11.151 2.7772 9.75455 4.04719 8.61164C6.56546 6.4392 9.86551 5.11776 15.0197 5.11776C16.7069 5.11415 18.3922 5.22975 20.0631 5.46369C21.3638 5.65741 22.4984 5.89264 23.5223 6.01025C23.9166 6.05177 24.0343 6.20397 24.0343 6.39769C24.0343 6.59141 23.9582 7.08955 23.8751 8.2242C23.7921 9.35884 23.799 11.1369 23.7575 11.8011C23.716 12.2646 23.5984 12.6175 23.2871 12.6175C22.9757 12.6175 22.9342 12.3477 22.9342 11.9256C22.8856 10.7667 22.4042 9.66818 21.5852 8.84687C20.409 7.71914 18.0845 6.90275 14.9021 6.90275C11.8718 6.90275 9.94853 7.44932 8.37807 8.77076C5.81828 10.9432 5.18871 14.1327 5.18871 17.3567C5.18871 25.2093 11.3184 28.9384 15.9606 28.9384C19.0254 28.9384 20.7204 28.7032 22.0971 27.188C22.6624 26.555 23.068 25.7958 23.2802 24.9741C23.3563 24.469 23.4393 24.2822 23.716 24.2822C23.9927 24.2822 24.1104 24.5935 24.1104 24.8634C23.9749 26.3449 23.7251 27.8137 23.3632 29.2567C23.3289 29.4913 23.2238 29.7098 23.0618 29.8829C22.8998 30.0561 22.6887 30.1755 22.4569 30.2253C21.0732 30.7718 18.4442 30.9655 16.2304 30.9655C11.4775 31.0001 7.47176 30.0315 4.32392 27.4232Z" fill="white"></path> <path d="M25.3625 18.0555C25.3625 12.4169 29.3752 5.11084 39.891 5.11084C48.6012 5.11776 54.0252 9.89849 54.0252 17.4536C54.0252 25.0087 48.4283 31.0001 39.5175 31.0001C29.4513 31.0001 25.3625 23.9294 25.3625 18.0555ZM48.8849 18.6782C48.871 11.3721 44.4295 6.86816 38.8464 6.86816C34.9929 6.86816 30.4406 8.88838 30.4406 17.0454C30.4406 23.8463 34.4048 29.2151 40.9288 29.2151C43.371 29.2151 48.871 28.0874 48.871 18.6782H48.8849Z" fill="white"></path> <path d="M60.2795 26.0671C60.3556 28.6338 60.7914 29.4087 61.4556 29.644C62.0418 29.8148 62.6509 29.8941 63.2613 29.8792C63.6556 29.8792 63.8493 30.0314 63.8493 30.2251C63.8493 30.4188 63.538 30.578 63.0607 30.578C60.8191 30.578 59.2071 30.4604 58.5776 30.4604C58.2662 30.4604 56.6128 30.578 54.8417 30.578C54.3712 30.578 54.053 30.5365 54.053 30.2251C54.053 30.0314 54.2882 29.8792 54.6064 29.8792C55.1342 29.8841 55.6609 29.8307 56.1769 29.7201C57.0832 29.4848 57.2008 28.5923 57.2354 25.7142L57.5537 6.12773C57.5537 5.43587 57.7889 5 58.1417 5C58.4946 5 59.048 5.50506 59.6361 6.08622C60.065 6.51517 65.2607 11.7594 70.2903 16.6163C72.6495 18.9063 77.2502 23.5764 77.7621 24.0399H77.9212L77.5684 9.35178C77.5269 7.33156 77.2156 6.7504 76.3923 6.43906C75.8041 6.28127 75.1949 6.21591 74.5866 6.24534C74.1507 6.24534 74.0331 6.09313 74.0331 5.8925C74.0331 5.69186 74.386 5.58116 74.8979 5.58116C76.7036 5.58116 78.5577 5.65726 79.298 5.65726C79.6923 5.65726 80.9861 5.58116 82.681 5.58116C83.1515 5.58116 83.4697 5.62267 83.4697 5.8925C83.4697 6.16232 83.276 6.24534 82.8817 6.24534C82.5249 6.23108 82.1681 6.27073 81.8232 6.36296C80.8823 6.63278 80.6055 7.22086 80.564 9.08196L80.1697 29.9069C80.1697 30.6472 79.893 30.9585 79.6162 30.9585C79.0831 30.9148 78.5874 30.6669 78.2326 30.2666C76.0671 28.281 71.7432 24.206 68.1318 20.7467C64.3405 17.1629 60.6738 13.1639 60.0028 12.6104H59.8851L60.2795 26.0671Z" fill="white"></path> <path d="M109.545 28.3572C109.545 29.2497 109.545 29.2912 109.116 29.5195C106.798 30.6472 103.374 31.0001 100.662 31.0001C92.166 31.0001 84.6596 27.1948 84.6596 18.0554C84.6125 15.8778 85.149 13.7272 86.2135 11.8269C87.278 9.92659 88.8316 8.3458 90.7131 7.2486C94.0132 5.35291 97.1195 5.11768 100.032 5.11768C102.089 5.14115 104.14 5.32388 106.169 5.66424C106.861 5.78186 108.092 5.97558 108.936 6.01017C109.33 6.05168 109.406 6.1693 109.406 6.39761C109.217 8.20375 109.138 10.0198 109.171 11.8356C109.171 12.3407 108.978 12.5759 108.701 12.5759C108.424 12.5759 108.389 12.4168 108.348 12.1469C108.283 11.1303 107.864 10.1685 107.165 9.42795C106.127 8.38324 103.533 6.90267 99.6239 6.90267C97.7352 6.90267 95.3415 6.94418 92.9408 8.84679C91.0106 10.4035 89.7584 12.8526 89.7584 16.8931C89.7584 24.0054 94.4006 29.1736 101.789 29.1736C102.617 29.234 103.448 29.1136 104.225 28.8207C104.455 28.7325 104.649 28.5689 104.774 28.3566C104.9 28.1443 104.95 27.8958 104.916 27.6515V24.6281C104.916 22.9953 104.916 21.7499 104.875 20.7398C104.833 19.6121 104.481 19.2662 103.381 18.9548C102.941 18.8683 102.493 18.8288 102.045 18.8372C101.734 18.8372 101.492 18.685 101.492 18.4844C101.492 18.2837 101.769 18.173 102.239 18.173C104.045 18.173 106.522 18.2491 107.545 18.2491C108.569 18.2491 110.458 18.173 111.593 18.173C112.063 18.173 112.285 18.2145 112.285 18.4844C112.272 18.5871 112.221 18.6812 112.141 18.747C112.061 18.8127 111.959 18.8451 111.856 18.8372C111.539 18.845 111.224 18.8844 110.915 18.9548C109.974 19.107 109.614 19.5775 109.579 20.7398C109.538 21.7499 109.538 23.0714 109.538 24.7042L109.545 28.3572Z" fill="white"></path> <path d="M116.865 15.1428C116.865 10.1268 116.865 9.19971 116.823 8.14809C116.782 7.09646 116.429 6.67443 115.329 6.38385C114.873 6.29495 114.409 6.25551 113.945 6.26623C113.592 6.26623 113.357 6.14862 113.357 5.91339C113.357 5.67816 113.634 5.60205 114.146 5.60205C115.951 5.60205 118.158 5.67816 118.864 5.67816C120.047 5.67816 123.188 5.60205 124.253 5.60205C126.453 5.60205 128.972 5.79577 130.819 6.98577C131.55 7.50188 132.151 8.18148 132.574 8.97055C132.997 9.75962 133.23 10.6364 133.254 11.5313C133.254 13.9804 131.87 16.1529 128.46 18.8373C131.524 22.5664 133.994 25.5621 136.07 27.6239C137.993 29.5265 139.211 29.6994 139.764 29.7963C140.034 29.8566 140.311 29.8822 140.587 29.8724C140.69 29.8644 140.791 29.8958 140.871 29.9601C140.95 30.0244 141.003 30.1168 141.016 30.2183C141.016 30.4882 140.781 30.5712 140.325 30.5712H137.025C135.101 30.5712 134.153 30.3775 133.247 29.8793C131.753 29.139 130.48 27.5893 128.529 25.0363C127.145 23.2513 125.699 21.0305 125.263 20.5254C125.182 20.443 125.083 20.3793 124.974 20.3387C124.866 20.2981 124.75 20.2815 124.634 20.2902L121.541 20.221C121.505 20.2167 121.467 20.2207 121.432 20.2327C121.397 20.2446 121.365 20.2642 121.339 20.2901C121.312 20.3159 121.292 20.3473 121.279 20.3821C121.266 20.4168 121.261 20.4539 121.265 20.4908V20.9544C121.265 24.0262 121.306 26.593 121.458 27.9906C121.576 28.9592 121.735 29.5818 122.794 29.741C123.353 29.816 123.917 29.8553 124.482 29.8586C124.585 29.8487 124.688 29.8792 124.769 29.9437C124.851 30.0082 124.904 30.1017 124.917 30.2045C124.917 30.4397 124.641 30.5573 124.226 30.5573C122.219 30.5573 119.383 30.4397 118.836 30.4397C118.144 30.4397 115.965 30.5573 114.588 30.5573C114.159 30.5573 113.897 30.4397 113.897 30.2045C113.897 29.9693 114.014 29.8586 114.45 29.8586C114.859 29.8679 115.268 29.8284 115.668 29.741C116.359 29.5818 116.574 28.9661 116.692 27.9906C116.851 26.6068 116.851 23.9847 116.851 20.9544L116.865 15.1428ZM121.265 17.7096C121.265 18.0624 121.341 18.1731 121.583 18.2907C122.443 18.5159 123.33 18.6207 124.219 18.6021C125.602 18.6021 126.066 18.4844 126.654 18.0555C127.712 17.3152 128.896 15.8761 128.896 13.1571C128.896 8.49401 125.672 7.29018 123.631 7.29018C122.937 7.27255 122.243 7.31189 121.555 7.4078C121.32 7.4839 121.237 7.60152 121.237 7.87134L121.265 17.7096Z" fill="white"></path> <path d="M141.48 15.1424C141.48 10.1264 141.48 9.19936 141.439 8.14773C141.397 7.09611 141.044 6.66716 139.944 6.36274C139.488 6.27389 139.025 6.23446 138.56 6.24513C138.208 6.24513 137.972 6.12751 137.972 5.89228C137.972 5.65705 138.249 5.58094 138.761 5.58094C140.567 5.58094 142.774 5.65705 143.756 5.65705C144.856 5.65705 152.522 5.69856 153.193 5.65705C153.864 5.61553 154.376 5.49792 154.646 5.46333C154.824 5.39741 155.006 5.34424 155.192 5.3042C155.393 5.3042 155.427 5.46333 155.427 5.61553C155.282 6.32028 155.19 7.03487 155.151 7.75337C155.109 8.0993 155.033 9.53837 154.95 9.93272C154.909 10.0849 154.832 10.4793 154.556 10.4793C154.279 10.4793 154.279 10.3271 154.279 10.0503C154.282 9.63736 154.202 9.228 154.044 8.84651C153.767 8.26535 153.49 7.79489 151.761 7.64268C151.173 7.56657 147.042 7.49047 146.337 7.49047C146.178 7.49047 146.101 7.60808 146.101 7.8018V15.9657C146.101 16.1594 146.143 16.3186 146.337 16.3186C147.118 16.3186 151.608 16.3186 152.39 16.2425C153.172 16.1664 153.725 16.0903 154.044 15.7374C154.32 15.5022 154.438 15.3085 154.597 15.3085C154.638 15.3128 154.678 15.3251 154.714 15.3449C154.75 15.3647 154.782 15.3914 154.808 15.4236C154.834 15.4558 154.853 15.4928 154.864 15.5324C154.875 15.572 154.879 15.6135 154.874 15.6544C154.874 15.8481 154.798 16.3947 154.597 18.062C154.521 18.7539 154.438 20.0477 154.438 20.276C154.438 20.5043 154.397 21.0163 154.085 21.0163C153.774 21.0163 153.774 20.8987 153.774 20.7465C153.732 20.4005 153.732 19.9716 153.656 19.5426C153.456 18.8508 153.027 18.3734 151.726 18.2627C151.096 18.1866 147.167 18.1105 146.302 18.1105C146.143 18.1105 146.108 18.2627 146.108 18.4564V21.0993C146.108 22.227 146.067 25.0221 146.108 25.9977C146.184 28.2531 147.25 28.7651 150.785 28.7651C151.89 28.8146 152.996 28.6694 154.051 28.3361C154.915 27.9487 155.31 27.2499 155.545 25.887C155.621 25.5341 155.704 25.3819 155.939 25.3819C156.175 25.3819 156.251 25.8108 156.251 26.1568C156.196 27.3855 156.039 28.6074 155.78 29.8098C155.545 30.6677 155.234 30.6677 153.933 30.6677C151.339 30.6677 149.256 30.6262 147.561 30.5501C145.866 30.474 144.573 30.474 143.549 30.474C143.154 30.474 142.407 30.5155 141.584 30.5155C140.761 30.5155 139.896 30.5916 139.183 30.5916C138.754 30.5916 138.491 30.474 138.491 30.2387C138.491 30.0035 138.609 29.8928 139.045 29.8928C139.454 29.9021 139.863 29.8626 140.262 29.7752C140.954 29.6161 141.169 29.0003 141.286 28.0248C141.445 26.6411 141.445 24.0189 141.445 20.9886L141.48 15.1424Z" fill="white"></path> <path d="M159.883 30.1489C159.329 29.9136 159.191 29.7614 159.191 29.0211C159.191 27.2361 159.35 25.1744 159.392 24.6278C159.433 24.0813 159.551 23.7699 159.827 23.7699C160.104 23.7699 160.18 24.0813 160.18 24.3165C160.202 24.898 160.307 25.4735 160.492 26.0254C161.239 28.4746 163.833 29.291 166.026 29.291C169.015 29.291 170.821 27.4229 170.821 25.0914C170.821 23.6523 170.468 22.2132 167.396 20.4283L165.39 19.2659C161.301 16.8929 159.966 14.6789 159.966 11.7662C159.966 7.72576 163.895 5.11746 168.697 5.11746C170.35 5.10334 171.999 5.28683 173.609 5.66402C173.927 5.74013 174.079 5.85774 174.079 6.09297C174.079 6.52193 173.962 7.47669 173.962 10.0573C173.962 10.7492 173.802 11.1089 173.526 11.1089C173.249 11.1089 173.173 10.9152 173.173 10.5278C173.118 9.71959 172.799 8.95171 172.267 8.34151C171.755 7.71884 170.655 6.78483 168.413 6.78483C165.936 6.78483 163.695 8.06477 163.695 10.3202C163.695 11.7939 164.248 12.9631 167.348 14.672L168.731 15.4469C173.29 17.9307 174.709 20.4629 174.709 23.4517C174.709 25.9009 173.768 27.8796 171.25 29.63C169.596 30.7992 167.32 31.0137 165.473 31.0137C163.571 31.0858 161.674 30.7922 159.883 30.1489Z" fill="white"></path> <path d="M178.756 30.1489C178.203 29.9137 178.064 29.7615 178.064 29.0212C178.064 27.2362 178.223 25.1744 178.265 24.6279C178.306 24.0813 178.424 23.77 178.701 23.77C178.977 23.77 179.054 24.0813 179.054 24.3165C179.075 24.8981 179.18 25.4735 179.365 26.0254C180.112 28.4746 182.706 29.291 184.9 29.291C187.888 29.291 189.694 27.423 189.694 25.0914C189.694 23.6524 189.341 22.2133 186.269 20.4283L184.263 19.266C180.174 16.8929 178.839 14.679 178.839 11.7662C178.839 7.7258 182.769 5.1175 187.57 5.1175C189.223 5.10299 190.872 5.28648 192.482 5.66406C192.8 5.74017 192.952 5.85778 192.952 6.09302C192.952 6.52197 192.835 7.47673 192.835 10.0574C192.835 10.7492 192.676 11.109 192.406 11.109C192.136 11.109 192.053 10.9153 192.053 10.5278C191.997 9.72193 191.679 8.95655 191.147 8.34847C190.635 7.7258 189.535 6.79179 187.293 6.79179C184.817 6.79179 182.575 8.07173 182.575 10.3272C182.575 11.8008 183.128 12.9701 186.235 14.679L187.618 15.4538C192.178 17.9376 193.596 20.4698 193.596 23.4586C193.596 25.9078 192.648 27.8865 190.137 29.6369C188.483 30.8062 186.207 31.0206 184.36 31.0206C182.453 31.0923 180.551 30.7964 178.756 30.1489Z" fill="white"></path> <path d="M230.062 28.3572C230.062 29.2497 230.062 29.2912 229.633 29.5195C227.316 30.6472 223.891 31.0001 221.179 31.0001C212.683 31.0001 205.177 27.1948 205.177 18.0554C205.13 15.8778 205.666 13.7272 206.731 11.8269C207.795 9.92659 209.349 8.3458 211.23 7.2486C214.531 5.35291 217.637 5.11768 220.549 5.11768C222.606 5.14109 224.658 5.32383 226.686 5.66424C227.378 5.78186 228.616 5.97558 229.453 6.01017C229.848 6.05168 229.924 6.1693 229.924 6.39761C229.734 8.20606 229.656 10.0245 229.689 11.8425C229.689 12.3476 229.488 12.5828 229.218 12.5828C228.948 12.5828 228.9 12.4237 228.865 12.1539C228.801 11.1371 228.382 10.1751 227.682 9.43486C226.658 8.38324 224.064 6.90959 220.176 6.90959C218.287 6.90959 215.887 6.9511 213.493 8.85371C211.549 10.4035 210.317 12.8526 210.317 16.8931C210.317 24.0054 214.959 29.1736 222.348 29.1736C223.176 29.2342 224.007 29.1138 224.783 28.8207C225.014 28.7325 225.207 28.5689 225.333 28.3566C225.459 28.1443 225.509 27.8958 225.475 27.6515V24.6281C225.475 22.9953 225.475 21.7499 225.434 20.7398C225.392 19.6121 225.039 19.2662 223.939 18.9548C223.5 18.8683 223.052 18.8288 222.604 18.8372C222.293 18.8372 222.058 18.685 222.058 18.4844C222.058 18.2837 222.334 18.173 222.805 18.173C224.611 18.173 227.094 18.2491 228.111 18.2491C229.128 18.2491 231.024 18.173 232.158 18.173C232.629 18.173 232.85 18.2145 232.85 18.4844C232.838 18.5871 232.787 18.6812 232.707 18.747C232.627 18.8127 232.525 18.8451 232.421 18.8372C232.102 18.8447 231.785 18.8841 231.473 18.9548C230.533 19.107 230.18 19.5775 230.138 20.7398C230.097 21.7499 230.097 23.0714 230.097 24.7042L230.062 28.3572Z" fill="white"></path> <path d="M233.604 18.0555C233.604 12.4169 237.617 5.11084 248.133 5.11084C256.864 5.11084 262.288 9.89157 262.288 17.4674C262.288 25.0432 256.705 30.9932 247.759 30.9932C237.693 31.0001 233.604 23.9294 233.604 18.0555ZM257.127 18.6782C257.127 11.3721 252.685 6.86124 247.102 6.86124C243.249 6.86124 238.724 8.88146 238.724 17.0454C238.724 23.8463 242.654 29.2082 249.185 29.2082C251.613 29.2152 257.12 28.0874 257.12 18.6782H257.127Z" fill="white"></path> <path d="M264.28 8.80519C263.498 6.97869 262.987 6.66735 261.727 6.35602C261.288 6.26888 260.84 6.22944 260.392 6.2384C260.074 6.2384 259.998 6.08619 259.998 5.88555C259.998 5.68492 260.351 5.57422 260.863 5.57422C262.71 5.57422 264.675 5.65032 265.892 5.65032C266.757 5.65032 268.57 5.57422 270.299 5.57422C270.735 5.57422 271.122 5.65032 271.122 5.88555C271.122 6.12079 270.887 6.2384 270.569 6.2384C270.111 6.19606 269.65 6.27729 269.234 6.47363C269.112 6.54041 269.014 6.64204 268.951 6.76538C268.888 6.88872 268.864 7.0281 268.881 7.16549C269.027 8.02823 269.293 8.86647 269.67 9.65618L275.488 24.4619H275.606C277.1 21.0441 281.541 10.3895 282.372 8.21711C282.532 7.83225 282.639 7.42721 282.69 7.01328C282.69 6.66043 282.531 6.54974 282.219 6.43212C281.767 6.31859 281.302 6.26509 280.836 6.27299C280.524 6.27299 280.248 6.15538 280.248 5.92015C280.248 5.68492 280.566 5.60881 281.23 5.60881C282.96 5.60881 284.496 5.68492 284.925 5.68492C285.513 5.68492 287.125 5.60881 288.19 5.60881C288.626 5.60881 288.882 5.68492 288.882 5.92015C288.882 6.15538 288.681 6.27299 288.328 6.27299C287.739 6.21819 287.147 6.35399 286.64 6.66043C286.204 6.97177 285.734 7.47683 284.828 9.57315C283.444 12.6796 282.552 14.4715 280.677 18.512C278.477 23.355 276.865 26.9457 276.076 28.62C275.211 30.5226 274.893 31.0276 274.423 31.0276C273.952 31.0276 273.675 30.5987 273.039 29.042L264.28 8.80519Z" fill="white"></path> <path d="M200.043 23.3203L200.894 26.0808H203.655L201.427 27.7897L202.278 30.5433L200.043 28.8413L197.816 30.5433L198.667 27.7897L196.432 26.0808H199.193L200.043 23.3203Z" fill="white"></path> </g> <defs> <clipPath id="clip0_1021_1403"> <rect width="129.545" height="38" fill="white" transform="translate(318.889)"></rect> </clipPath> <clipPath id="clip1_1021_1403"> <rect width="288.889" height="26" fill="white" transform="translate(0 5)"></rect> </clipPath> </defs> </svg> 