<?xml version="1.0" encoding="UTF-8"?> <svg xmlns="http://www.w3.org/2000/svg" width="150" height="30" viewBox="0 0 150 30" fill="none"> <g clip-path="url(#clip0_1017_14056)"> <mask id="mask0_1017_14056" style="mask-type:luminance" maskUnits="userSpaceOnUse" x="0" y="0" width="30" height="30"> <path d="M8.82112 0.178063C7.23304 0.253018 6.14837 0.507388 5.20054 0.878785C4.21935 1.2613 3.3876 1.77392 2.56019 2.60472C1.73181 3.436 1.22308 4.26922 0.843479 5.2514C0.47595 6.20165 0.2269 7.28683 0.156771 8.8759C0.0871443 10.4679 0.0711771 10.9756 0.0789383 15.0286C0.0866697 19.0811 0.104556 19.5898 0.180473 21.1823C0.256386 22.7699 0.509807 23.8541 0.881201 24.8024C1.2642 25.7836 1.77629 26.6149 2.60757 27.4428C3.43837 28.2707 4.27207 28.779 5.2547 29.1591C6.20398 29.5261 7.28962 29.7762 8.8782 29.8458C10.4702 29.9159 10.9784 29.9314 15.0303 29.9236C19.0842 29.9159 19.5925 29.898 21.1844 29.8226C22.7725 29.7467 23.8562 29.4923 24.805 29.1219C25.7862 28.7379 26.6179 28.2267 27.4454 27.3954C28.2728 26.5646 28.7815 25.7309 29.1611 24.7483C29.5287 23.799 29.7786 22.7133 29.8478 21.1257C29.9174 19.5328 29.9339 19.024 29.9261 14.9715C29.9184 10.9186 29.9 10.4108 29.8246 8.81933C29.7492 7.23025 29.4948 6.14653 29.1239 5.19772C28.7404 4.21653 28.2288 3.38571 27.398 2.55733C26.5672 1.72991 25.7335 1.2202 24.7508 0.841553C23.8011 0.474021 22.7159 0.223517 21.1273 0.154848C19.5354 0.0842451 19.0272 0.0687794 14.9738 0.0765138C10.9213 0.0842481 10.4131 0.101663 8.82112 0.178063ZM8.99523 27.1594C7.54012 27.0961 6.74996 26.8543 6.22334 26.6517C5.526 26.3818 5.0284 26.0583 4.50468 25.5385C3.98193 25.0167 3.65743 24.5205 3.38518 23.8246C3.18061 23.298 2.93448 22.5088 2.8663 21.0536C2.7923 19.4805 2.77539 19.0085 2.76813 15.0233C2.76039 11.039 2.77488 10.567 2.84357 8.99245C2.90594 7.53829 3.1492 6.74714 3.35132 6.22099C3.62115 5.52269 3.9437 5.02604 4.46453 4.50232C4.98631 3.97859 5.48246 3.65507 6.17883 3.38281C6.70497 3.17728 7.49419 2.93306 8.9488 2.86392C10.5229 2.78944 10.9943 2.77349 14.9786 2.76575C18.9638 2.758 19.4358 2.77204 21.0103 2.84119C22.4644 2.90453 23.2556 3.14537 23.7813 3.34896C24.4791 3.61879 24.9767 3.94039 25.4999 4.46218C26.0231 4.98398 26.3476 5.47917 26.6199 6.17699C26.8254 6.70168 27.0696 7.49186 27.1383 8.94602C27.2132 10.5201 27.2302 10.9921 27.2374 14.9764C27.2451 18.9616 27.2307 19.4336 27.1615 21.0072C27.0982 22.4623 26.8568 23.253 26.6537 23.7801C26.3839 24.477 26.0613 24.9746 25.54 25.4983C25.0188 26.0201 24.5226 26.3456 23.8257 26.6178C23.3006 26.8229 22.5104 27.0676 21.0567 27.1367C19.4827 27.2107 19.0112 27.2276 15.0255 27.2349C11.0413 27.2426 10.5698 27.2276 8.99523 27.1594ZM21.1627 7.02182C21.1646 8.01028 21.9683 8.81063 22.9567 8.80869C23.9457 8.80676 24.746 8.00351 24.7446 7.01505C24.7426 6.02659 23.9389 5.22578 22.95 5.22771C21.9611 5.22965 21.1607 6.03336 21.1627 7.02182ZM7.33897 15.0146C7.34717 19.2474 10.785 22.6713 15.0168 22.663C19.2491 22.6548 22.6748 19.2179 22.6666 14.9851C22.6584 10.7537 19.2201 7.32793 14.9873 7.33615C10.7555 7.34437 7.33073 10.7827 7.33897 15.0146ZM10.0272 15.0093C10.0223 12.262 12.2459 10.0302 14.9926 10.0254C17.7399 10.0201 19.9721 12.2426 19.9774 14.9904C19.9827 17.7382 17.7592 19.9694 15.0115 19.9748C12.2647 19.9801 10.0325 17.757 10.0272 15.0093Z" fill="white"></path> </mask> <g mask="url(#mask0_1017_14056)"> <mask id="mask1_1017_14056" style="mask-type:luminance" maskUnits="userSpaceOnUse" x="-2" y="-2" width="34" height="34"> <path d="M31.1099 -1.09424H-1.12891V31.145H31.1099V-1.09424Z" fill="white"></path> </mask> <g mask="url(#mask1_1017_14056)"> <mask id="mask2_1017_14056" style="mask-type:luminance" maskUnits="userSpaceOnUse" x="-2" y="-2" width="34" height="34"> <path d="M31.26 -1.24365H-1.27734V31.2941H31.26V-1.24365Z" fill="white"></path> </mask> <g mask="url(#mask2_1017_14056)"> <mask id="mask3_1017_14056" style="mask-type:luminance" maskUnits="userSpaceOnUse" x="-2" y="-2" width="34" height="34"> <path d="M31.26 -1.24365H-1.27734V31.2941H31.26V-1.24365Z" fill="white"></path> </mask> <g mask="url(#mask3_1017_14056)"> <rect x="0.00390625" width="30" height="30" fill="white"></rect> </g> </g> </g> </g> </g> <g clip-path="url(#clip1_1017_14056)"> <path fill-rule="evenodd" clip-rule="evenodd" d="M141.504 15.0001L140.839 19.336L140.839 19.336H137.344V29.8178V29.8179C144.515 28.6926 150 22.487 150 15.0001C150 6.71582 143.284 9.53674e-05 135 9.53674e-05C126.716 9.53674e-05 120 6.71582 120 15.0001C120 22.487 125.485 28.6926 132.656 29.8179V29.8178V19.336H128.848V19.336V15.0001V15.0001H132.656V11.6954C132.656 11.6954 132.656 11.6954 132.656 11.6954C132.656 10.5472 132.865 9.55596 133.253 8.73294C134.135 6.86125 135.942 5.85944 138.322 5.85944C139.963 5.85944 141.68 6.1524 141.68 6.1524L141.68 6.15244L141.68 9.84381L141.68 9.84385H139.788C138.391 9.84385 137.714 10.4942 137.464 11.3198C137.38 11.5951 137.344 11.8897 137.344 12.1863C137.344 12.1863 137.344 12.1863 137.344 12.1863V15.0001H141.504L141.504 15.0001Z" fill="white"></path> </g> <path fill-rule="evenodd" clip-rule="evenodd" d="M64.5 0C62.0147 0 60 2.01472 60 4.5V25.5C60 27.9853 62.0147 30 64.5 30H85.5C87.9853 30 90 27.9853 90 25.5V4.5C90 2.01472 87.9853 0 85.5 0H64.5ZM83.6414 6H80.7656L76.0289 11.4293L71.9332 6H66L73.0887 15.293L66.3703 22.9922H69.2473L74.4328 17.0508L78.9645 22.9922H84.75L77.3602 13.1977L83.6414 6ZM81.3516 21.2672H79.7578L69.3574 7.63477H71.066L81.3516 21.2672Z" fill="white"></path> <defs> <clipPath id="clip0_1017_14056"> <rect width="30" height="30" fill="white"></rect> </clipPath> <clipPath id="clip1_1017_14056"> <rect width="30" height="30" fill="white" transform="translate(120)"></rect> </clipPath> </defs> </svg> 